<svg width="90" height="90" viewBox="0 0 90 90" fill="none" xmlns="http://www.w3.org/2000/svg">
<circle cx="45" cy="45" r="43" stroke="white" stroke-width="4"/>
<path fill-rule="evenodd" clip-rule="evenodd" d="M45.6293 18.318C43.0445 19.6615 43.025 23.4971 45.596 24.8337C48.0189 26.0932 50.8496 24.3658 50.8399 21.6332C50.8327 19.5703 49.534 18.1566 47.5154 18.014C46.7515 17.9601 46.1229 18.0615 45.6293 18.318ZM37.3625 24.1383C34.3535 25.656 35.6627 30.1906 38.9994 29.8075C40.6756 29.615 41.9796 27.8203 41.6088 26.2161C41.3751 25.2037 40.4558 24.1741 39.5594 23.9203C38.4466 23.6055 38.4124 23.6087 37.3625 24.1383ZM45.8077 26.677C44.6877 26.9076 43.9342 27.3984 43.2338 28.3529C42.8351 28.8962 42.7592 29.3866 42.6951 31.8381L42.6204 34.6911L43.5778 35.8559L44.5349 37.0211L44.8224 40.6102C44.9806 42.5841 45.1149 44.3797 45.1212 44.6005C45.1309 44.9533 45.3867 45.0017 47.2387 45.0017H49.345L49.4834 43.5688C49.5595 42.7808 49.6904 41.0169 49.7741 39.6491L49.9262 37.1623L50.9043 35.9392L51.8821 34.7158V32.1935C51.8821 29.5196 51.7025 28.7137 50.9108 27.8347C49.9609 26.7801 47.746 26.2776 45.8077 26.677ZM37.145 31.1189C36.65 31.3046 36.0171 31.7244 35.7388 32.0518C35.2861 32.5841 35.2325 32.8909 35.2325 34.9513C35.2325 37.1412 35.2645 37.2969 35.878 38.0908C36.4207 38.793 36.5476 39.2188 36.6734 40.7603C36.7555 41.7691 36.8817 43.136 36.9535 43.7981L37.0842 45.0017H38.6182C40.4364 45.0017 40.3208 45.2057 40.5361 41.6146C40.6848 39.1317 40.7208 38.9918 41.4469 38.061C42.1621 37.1444 42.2031 36.9933 42.2049 35.258C42.2069 33.2297 41.828 32.1561 40.8542 31.4298C40.0775 30.8507 38.2652 30.6987 37.145 31.1189ZM32.9871 51.7897L27.5451 56.0561L28.0885 56.6616C28.3873 56.9947 30.4849 59.36 32.7495 61.9179C36.3973 66.0375 36.9087 66.5325 37.2311 66.2544C37.4312 66.0817 38.6266 65.0982 39.8874 64.0686L42.1801 62.1964H48.2138H54.2477L60.2865 56.0398L66.3256 49.8829L65.6272 49.0727C64.2754 47.5036 62.3598 47.0969 60.6094 48.0069C60.098 48.2726 57.9356 50.1812 55.804 52.2482L51.9284 56.0063H47.5179C43.4072 56.0063 43.0767 55.9751 42.6573 55.5478C41.9061 54.7823 42.1322 53.0961 43.0448 52.6591C43.2648 52.5536 45.1739 52.4126 47.2873 52.3454C50.9137 52.2304 51.176 52.1914 51.9595 51.6503C53.0692 50.8839 53.9181 49.5984 54.0683 48.4574L54.1912 47.5236H46.3101H38.4288L32.9871 51.7897ZM24.3203 58.5548C23.7016 59.0649 23.1083 59.5679 23.0018 59.6725C22.8421 59.8293 33.1763 71.8154 33.6281 71.9972C33.8522 72.0875 36.3935 69.9838 36.3152 69.7729C36.2101 69.4895 25.7009 57.6098 25.5636 57.6194C25.4986 57.6238 24.939 58.0449 24.3203 58.5548Z" fill="white"/>
<path d="M56.1822 29.8075C52.8455 30.1906 51.5363 25.656 54.5454 24.1383C55.5952 23.6087 55.6294 23.6055 56.7422 23.9203C57.6386 24.1741 58.5579 25.2037 58.7917 26.2161C59.1625 27.8203 57.8584 29.6149 56.1822 29.8075Z" fill="white"/>
<path d="M52.9216 32.0518C53.1999 31.7244 53.8328 31.3046 54.3278 31.1189C55.448 30.6987 57.2604 30.8507 58.0371 31.4298C59.0108 32.1561 59.3897 33.2297 59.3877 35.258C59.3859 36.9933 59.3449 37.1444 58.6297 38.061C57.9036 38.9918 57.8676 39.1316 57.7189 41.6146C57.5036 45.2057 57.6192 45.0017 55.8011 45.0017H54.2671L54.1363 43.7981C54.0646 43.136 53.9383 41.7691 53.8562 40.7603C53.7304 39.2188 53.6035 38.793 53.0609 38.0908C52.4473 37.2969 52.4153 37.1412 52.4153 34.9513C52.4153 32.8909 52.4689 32.5841 52.9216 32.0518Z" fill="white"/>
</svg>
