<svg width="27" height="27" viewBox="0 0 27 27" fill="none" xmlns="http://www.w3.org/2000/svg">
<path d="M2.38542 22.1849L2.37525 22.1801L1.90947 21.9567C1.36854 21.6974 0.852568 21.2358 0.595558 20.7777C0.584697 20.7584 0.57411 20.7397 0.563798 20.7215C0.488625 20.589 0.428064 20.4823 0.382218 20.3204C0.330413 20.1376 0.297507 19.8856 0.276119 19.4425C0.235916 18.6095 0.235995 17.0866 0.236151 14.0451C0.236161 13.8494 0.236171 13.6475 0.236171 13.4391C0.236171 10.3598 0.236951 8.77679 0.252734 7.91765L2.38542 22.1849ZM2.38542 22.1849L2.3967 22.185M2.38542 22.1849L2.3967 22.185M2.3967 22.185L7.318 22.2015L12.2213 22.2181L14.4888 24.1094L14.4905 24.1108C15.7254 25.1408 16.3482 25.6603 16.7018 25.8823C16.8775 25.9926 16.9986 26.0377 17.1015 26.0239C17.2021 26.0105 17.2731 25.9416 17.3475 25.8694L17.3534 25.8637L17.3534 25.8636L17.5041 25.7176L17.5193 25.7029M2.3967 22.185L17.5193 25.7029M17.5193 25.7029V25.6817M17.5193 25.7029V25.6817M17.5193 25.6817V23.9266V22.2212L19.6651 22.2033L21.8605 22.185L21.8716 22.1849M17.5193 25.6817L21.8716 22.1849M21.8716 22.1849L21.8817 22.1801M21.8716 22.1849L21.8817 22.1801M21.8817 22.1801L22.2992 21.9806C23.0615 21.6165 23.657 20.865 23.8328 20.0445C23.8395 20.0135 23.845 19.9587 23.85 19.8829C23.8551 19.806 23.8598 19.7044 23.864 19.5777C23.8726 19.3242 23.8796 18.969 23.8851 18.5075C23.8962 17.5845 23.9016 16.2351 23.9016 14.4217V9.12488V9.10371M21.8817 22.1801L23.9016 9.10371M23.9016 9.10371L23.8864 9.08898M23.9016 9.10371L23.8864 9.08898M23.8864 9.08898L23.7357 8.94294C23.5348 8.74797 23.2356 8.73346 23.0144 8.90712L23.0452 8.94645L23.0144 8.90712L22.8695 9.02092L22.8505 9.03583M23.8864 9.08898L22.8505 9.03583M22.8505 9.03583L22.8504 9.05996M22.8505 9.03583L22.8504 9.05996M22.8504 9.05996L22.8197 14.526L22.7891 19.9793L22.6545 20.2238C22.4563 20.5837 22.1328 20.9087 21.8433 21.0447C21.7827 21.0731 21.7327 21.0937 21.6563 21.1096C21.5785 21.1258 21.4723 21.1373 21.2998 21.1452C20.9547 21.1611 20.3539 21.1624 19.2057 21.1624C18.072 21.1624 17.4691 21.164 17.1327 21.179C16.9649 21.1865 16.8601 21.1975 16.7877 21.2143C16.7124 21.2318 16.6716 21.2558 16.6321 21.2868C16.5961 21.315 16.561 21.3427 16.5347 21.3936C16.5095 21.4425 16.4942 21.5088 16.483 21.6117C16.4605 21.8176 16.4526 22.1955 16.4374 22.937L16.4088 24.3313L14.63 22.8476C14.1188 22.4212 13.6457 22.0283 13.2953 21.7388C13.1201 21.5941 12.9754 21.4751 12.8721 21.3907C12.8204 21.3485 12.7789 21.3149 12.749 21.291C12.7208 21.2684 12.6997 21.2518 12.6915 21.2466C12.6831 21.2414 12.6744 21.2395 12.6727 21.2391C12.6717 21.2389 12.6708 21.2386 12.6698 21.2385C12.667 21.2379 12.6643 21.2374 12.6617 21.2371C12.6546 21.236 12.6456 21.2351 12.6354 21.2342C12.6147 21.2325 12.5859 21.2308 12.5496 21.229C12.4769 21.2256 12.3726 21.222 12.2403 21.2185C11.9755 21.2114 11.5977 21.2041 11.1349 21.1972C10.2091 21.1833 8.94256 21.1706 7.5586 21.1624L2.5395 21.1328L2.26545 20.9765C2.11355 20.8899 1.87802 20.6978 1.74535 20.5515L1.74534 20.5515M22.8504 9.05996L1.74534 20.5515M1.74534 20.5515C1.71776 20.5211 1.6925 20.4945 1.66923 20.4701C1.58978 20.3864 1.53359 20.3273 1.48804 20.2251C1.42887 20.0924 1.38869 19.8863 1.36295 19.468C1.31719 18.724 1.3178 17.3315 1.31902 14.5412C1.31917 14.1989 1.31933 13.8355 1.31941 13.4496C1.31952 12.9296 1.3194 12.4506 1.31928 12.0091C1.31859 9.41004 1.31824 8.11339 1.36901 7.4263C1.39878 7.02329 1.4458 6.83984 1.51405 6.72741C1.54762 6.67211 1.58754 6.63206 1.6379 6.59029C1.65925 6.57257 1.68197 6.55495 1.70699 6.53555C1.71189 6.53174 1.71689 6.52787 1.72198 6.52391C1.75273 6.5 1.78627 6.47361 1.82234 6.44282L1.82234 6.44282M1.74534 20.5515L1.82234 6.44282M1.82234 6.44282C1.85092 6.41842 1.87632 6.39586 1.8999 6.3749C1.98979 6.29505 2.05336 6.23857 2.16629 6.19304C2.31033 6.13496 2.53507 6.09567 2.98649 6.07037C3.79684 6.02496 5.3164 6.02521 8.36028 6.02573C8.70192 6.02579 9.06277 6.02585 9.44396 6.02585H16.1861H16.2064M1.82234 6.44282L16.2064 6.02585M16.2064 6.02585L16.2209 6.01173M16.2064 6.02585L16.2209 6.01173M16.2209 6.01173L16.3715 5.86563C16.4747 5.76558 16.5374 5.63111 16.5374 5.4997C16.5374 5.36829 16.4747 5.23383 16.3715 5.13377L16.2209 4.98767L16.2064 4.97355M16.2209 6.01173L16.2064 4.97355M16.2064 4.97355L16.1861 4.97356M16.2064 4.97355L16.1861 4.97356M16.1861 4.97356L9.38674 4.97749C6.55848 4.97912 4.84481 4.98363 3.80469 4.99648C3.2847 5.00291 2.93249 5.01143 2.6933 5.02275C2.45565 5.034 2.32552 5.04812 2.25272 5.06714C1.32102 5.31045 0.624289 5.91793 0.361667 6.72548L16.1861 4.97356ZM5.46207 10.7732L5.47661 10.7873H5.49688H9.12319H12.7495H12.7698L12.7843 10.7732L12.9349 10.6271C13.0381 10.527 13.1008 10.3925 13.1008 10.2611C13.1008 10.1297 13.0381 9.99528 12.9349 9.89523C12.9349 9.89522 12.9349 9.89521 12.9349 9.89521L12.7843 9.74911L12.7698 9.73499H12.7495H9.12319H5.49688H5.47661L5.46207 9.74911L5.31149 9.89521C5.20826 9.99526 5.14563 10.1297 5.14563 10.2611C5.14563 10.3925 5.20826 10.527 5.31149 10.6271L5.46207 10.7732ZM5.46207 13.1539L5.47661 13.168H5.49688H8.87772H12.2586H12.2788L12.2934 13.1539L12.444 13.0078C12.444 13.0078 12.444 13.0078 12.444 13.0078C12.5472 12.9077 12.6098 12.7733 12.6098 12.6419C12.6098 12.5105 12.5472 12.376 12.444 12.2759C12.444 12.2759 12.444 12.2759 12.444 12.2759L12.2934 12.1298L12.2788 12.1157H12.2586H8.87772H5.49688H5.47661L5.46207 12.1298L5.31149 12.2759C5.20826 12.376 5.14563 12.5104 5.14563 12.6419C5.14563 12.7733 5.20826 12.9077 5.31149 13.0078L5.46207 13.1539ZM5.46207 15.5346L5.47661 15.5487H5.49688H12.0689H18.6409H18.6611L18.6757 15.5346L18.8262 15.3885C18.9295 15.2885 18.9921 15.154 18.9921 15.0226C18.9921 14.8912 18.9295 14.7567 18.8262 14.6566L18.6757 14.5105L18.6611 14.4964H18.6409H12.0689H5.49688H5.47661L5.46207 14.5105L5.31149 14.6566C5.20826 14.7567 5.14563 14.8912 5.14563 15.0226C5.14563 15.154 5.20826 15.2885 5.31149 15.3885L5.46207 15.5346ZM5.46207 17.9153L5.47661 17.9294H5.49688H12.0689H18.6409H18.6611L18.6757 17.9153L18.8262 17.7692C18.9295 17.6692 18.9921 17.5347 18.9921 17.4033C18.9921 17.2719 18.9295 17.1374 18.8262 17.0374L18.6757 16.8913L18.6611 16.8771H18.6409H12.0689H5.49688H5.47661L5.46207 16.8913L5.31149 17.0374C5.20826 17.1374 5.14563 17.2719 5.14563 17.4033C5.14563 17.5347 5.20826 17.6692 5.31149 17.7692L5.46207 17.9153Z" fill="#00477A" stroke="white" stroke-width="0.1"/>
<path d="M15.7596 9.0659C15.7155 8.8955 15.5517 8.77842 15.3832 8.73178C15.2153 8.6853 15.0177 8.70222 14.9029 8.8319L14.9028 8.83192L15.7112 9.07842M15.7596 9.0659L15.7112 9.07842M15.7596 9.0659C15.7596 9.06589 15.7596 9.06588 15.7596 9.06587L15.7112 9.07842M15.7596 9.0659C15.7649 9.08647 15.7636 9.11532 15.7609 9.1438C15.7579 9.17499 15.7521 9.21475 15.7438 9.26206C15.7272 9.35682 15.7001 9.4849 15.6638 9.64139C15.5911 9.95455 15.4807 10.3838 15.3413 10.8927L15.293 10.8795C15.5718 9.86233 15.7337 9.16526 15.7112 9.07842M18.3863 8.36461C18.9868 7.77185 19.8032 6.97629 20.6905 6.12098C22.1788 4.68644 22.9901 3.9083 23.4531 3.4889C23.6842 3.27951 23.8304 3.15776 23.9316 3.08831C24.0336 3.01833 24.0959 2.99717 24.1579 2.99717C24.4682 2.99717 24.6983 3.21455 24.6983 3.51683C24.6983 3.54624 24.695 3.57684 24.6818 3.61321C24.6689 3.64867 24.6474 3.68765 24.6136 3.73529C24.5466 3.82993 24.4258 3.96598 24.2113 4.18569C23.7814 4.62598 22.966 5.41122 21.4245 6.89043C20.5283 7.75036 19.6975 8.53828 19.081 9.11498C18.7728 9.40332 18.518 9.63898 18.3353 9.80449C18.244 9.88721 18.1705 9.95263 18.1172 9.99841C18.0906 10.0213 18.0686 10.0395 18.0519 10.0527C18.0435 10.0593 18.036 10.0649 18.0296 10.0694L18.3863 8.36461ZM18.3863 8.36461C18.0861 8.66096 17.8397 8.90675 17.6653 9.084M18.3863 8.36461L17.6653 9.084M17.6653 9.084C17.5782 9.1726 17.5088 9.24428 17.4597 9.29668M17.6653 9.084L17.4597 9.29668M17.4597 9.29668C17.4351 9.32285 17.4154 9.3445 17.4008 9.3612M17.4597 9.29668L17.4008 9.3612M17.4008 9.3612C17.3879 9.37601 17.3752 9.39132 17.369 9.40274L17.4008 9.3612ZM24.9767 1.48625L24.9767 1.48624L22.3218 7.65505C19.3312 10.5572 18.9411 10.9568 18.9411 11.1176C18.9411 11.3619 19.18 11.5782 19.4419 11.571L19.4433 11.621C19.4433 11.621 19.4433 11.621 19.4433 11.621C19.5043 11.6193 19.5731 11.5865 19.6846 11.5037C19.798 11.4194 19.964 11.2766 20.2211 11.0402C20.7359 10.5669 21.6215 9.71343 23.1928 8.19042C24.1606 7.25225 25.0445 6.38444 25.6889 5.74202C26.0111 5.42084 26.2736 5.15584 26.4568 4.9665C26.5484 4.87188 26.6204 4.79587 26.6703 4.74108C26.6952 4.71375 26.7149 4.69125 26.729 4.67414C26.736 4.66564 26.742 4.65789 26.7467 4.65119C26.7491 4.64786 26.7514 4.64423 26.7536 4.64052C26.7553 4.63749 26.7585 4.63152 26.7605 4.62408L26.7605 4.62407C26.7652 4.6062 26.7652 4.58406 26.7639 4.56303C26.7625 4.54046 26.7592 4.51323 26.7542 4.48229C26.7444 4.42032 26.7277 4.34036 26.7054 4.24716C26.6607 4.06056 26.593 3.81812 26.5107 3.55476L26.2264 2.64538L26.2226 2.63341L26.2137 2.62462L25.6787 2.09955L25.6436 2.13524L25.6787 2.09955C25.5309 1.95457 25.379 1.81373 25.2532 1.70348C25.1904 1.64838 25.1337 1.60067 25.0872 1.56382C25.0418 1.52788 25.0029 1.49971 24.9767 1.48625ZM25.4672 3.80031L25.6455 4.35998L15.8593 8.10429L15.8093 8.10282C15.8093 8.10282 15.8093 8.10282 15.8093 8.10283C15.8052 8.24166 15.867 8.37381 15.9617 8.47055C16.0563 8.5673 16.1874 8.63234 16.327 8.63234C16.3866 8.63234 16.4554 8.5986 16.5637 8.51807C16.6747 8.43562 16.8369 8.29618 17.0857 8.06764C17.5839 7.61011 18.4353 6.79018 19.9306 5.34077L23.2915 2.08317L23.8421 2.2344L23.8554 2.18618L23.8421 2.2344C24.1224 2.31139 24.2644 2.35338 24.3906 2.4253C24.5169 2.49731 24.6292 2.60035 24.8459 2.80668C25.0638 3.01423 25.1718 3.12056 25.2494 3.24481C25.3272 3.36907 25.3757 3.51295 25.4672 3.80031ZM14.9774 12.4742C14.9536 12.4795 14.9328 12.4841 14.915 12.4879L14.769 9.00621C14.7603 9.02132 14.7497 9.04943 14.7381 9.08306C14.7258 9.11857 14.7108 9.16539 14.6935 9.22167C14.6589 9.3343 14.6146 9.48616 14.5643 9.66406C14.4636 10.0199 14.3382 10.4809 14.2157 10.9427C14.0933 11.4045 13.9737 11.8673 13.8847 12.2267C13.8403 12.4064 13.8034 12.5605 13.7776 12.6758C13.7647 12.7334 13.7545 12.7817 13.7475 12.8187C13.7408 12.8539 13.7361 12.8837 13.7361 12.9012C13.7361 12.9937 13.749 13.0687 13.7898 13.1456C13.8294 13.2205 13.8938 13.2938 13.9895 13.3867L13.9896 13.3867C14.0876 13.4817 14.1627 13.5444 14.2407 13.5821C14.3204 13.6208 14.3991 13.6315 14.5001 13.6312C14.5207 13.6312 14.5536 13.6272 14.5942 13.6209C14.6359 13.6144 14.6889 13.6049 14.7517 13.5928C14.8773 13.5686 15.0431 13.5338 15.2372 13.4909C15.6255 13.405 16.1282 13.2868 16.6516 13.1568C17.6702 12.904 18.2049 12.768 18.4837 12.6489C18.6235 12.5891 18.7085 12.53 18.7557 12.4544C18.803 12.3787 18.807 12.2947 18.807 12.2036C18.807 12.0874 18.7387 11.9591 18.6535 11.8627C18.6101 11.8137 18.5602 11.7704 18.5084 11.7393C18.4571 11.7085 18.4006 11.6876 18.3448 11.6884C18.3319 11.6886 18.3077 11.6927 18.2797 11.698C18.2494 11.7037 18.2088 11.712 18.1592 11.7226C18.0601 11.7437 17.9241 11.7742 17.7611 11.8116C17.4353 11.8866 17.0011 11.9896 16.5372 12.1028C16.0736 12.2159 15.6508 12.3174 15.3431 12.3898C15.1892 12.4259 15.0643 12.4548 14.9774 12.4742Z" fill="#5A5F61" stroke="white" stroke-width="0.1"/>
</svg>
