<svg width="72" height="72" viewBox="0 0 72 72" fill="none" xmlns="http://www.w3.org/2000/svg">
<circle cx="36" cy="36" r="34" stroke="white" stroke-width="4"/>
<path d="M12 36C12 29.1044 14.5791 22.4912 19.17 17.6152C23.7609 12.7393 29.9875 10 36.48 10C42.9725 10 49.1991 12.7393 53.79 17.6152C58.3809 22.4912 60.96 29.1044 60.96 36C60.96 42.8956 58.3809 49.5088 53.79 54.3848C49.1991 59.2607 42.9725 62 36.48 62C29.9875 62 23.7609 59.2607 19.17 54.3848C14.5791 49.5088 12 42.8956 12 36V36ZM34.95 13.5003C32.8998 14.1633 30.8649 16.1652 29.1758 19.529C28.7382 20.4 28.3312 21.349 27.9671 22.363C30.1244 22.8732 32.4714 23.1983 34.95 23.2958V13.5003ZM25.0019 21.5018C25.4365 20.2538 25.9322 19.0837 26.4738 17.9982C27.0029 16.9357 27.6139 15.9215 28.3006 14.966C25.6955 16.1126 23.3289 17.7935 21.3361 19.9125C22.4438 20.5105 23.6708 21.0467 25.0019 21.505V21.5018ZM22.7375 34.375C22.8477 30.8975 23.3128 27.5923 24.0717 24.599C22.4153 24.0364 20.8121 23.3107 19.2828 22.4313C16.8456 25.9066 15.3991 30.0521 15.1151 34.375H22.7345H22.7375ZM27.0215 25.4667C26.3001 28.378 25.8896 31.3662 25.7975 34.375H34.95V26.5458C32.1654 26.4483 29.494 26.0745 27.0215 25.4667ZM38.01 26.5425V34.375H47.1594C47.0684 31.3663 46.6589 28.3781 45.9385 25.4667C43.466 26.0745 40.7946 26.445 38.01 26.5458V26.5425ZM25.8006 37.625C25.9077 40.8327 26.3392 43.8455 27.0215 46.5333C29.6258 45.9056 32.2808 45.5453 34.95 45.4575V37.625H25.8006ZM38.01 37.625V45.4543C40.7946 45.5518 43.466 45.9255 45.9385 46.5333C46.6208 43.8455 47.0523 40.8327 47.1625 37.625H38.01ZM27.9671 49.637C28.3343 50.651 28.7382 51.6 29.1758 52.471C30.8649 55.8347 32.9029 57.8335 34.95 58.4998V48.7075C32.4714 48.805 30.1244 49.13 27.9671 49.6402V49.637ZM28.3037 57.034C27.6159 56.0787 27.0038 55.0645 26.4738 54.0017C25.9102 52.8689 25.4185 51.6974 25.0019 50.495C23.7432 50.9247 22.5175 51.4571 21.3361 52.0875C23.3289 54.2065 25.6955 55.8874 28.3006 57.034H28.3037ZM24.0717 47.401C23.2773 44.207 22.8286 40.9271 22.7345 37.625H15.1151C15.3989 41.948 16.8455 46.0934 19.2828 49.5688C20.721 48.7303 22.3275 48.0023 24.0717 47.401V47.401ZM44.6594 57.034C47.2632 55.8881 49.6287 54.2083 51.6209 52.0908C50.4404 51.4604 49.2158 50.928 47.9581 50.4983C47.5414 51.6996 47.0497 52.87 46.4862 54.0017C45.9572 55.0644 45.3462 56.0786 44.6594 57.034V57.034ZM38.01 48.7043V58.4998C40.0602 57.8368 42.0951 55.8347 43.7842 52.471C44.2218 51.6 44.6288 50.651 44.9929 49.637C42.6967 49.1023 40.3594 48.7911 38.01 48.7075V48.7043ZM48.8883 47.401C50.6325 48.0023 52.239 48.7303 53.6772 49.5688C56.1145 46.0934 57.5611 41.948 57.8449 37.625H50.2255C50.1314 40.9271 49.6827 44.207 48.8883 47.401V47.401ZM57.8449 34.375C57.5611 30.052 56.1145 25.9066 53.6772 22.4313C52.239 23.2698 50.6325 23.9978 48.8883 24.599C49.6472 27.589 50.1123 30.8975 50.2255 34.375H57.8449ZM46.4862 17.9982C47.0278 19.0837 47.5235 20.2538 47.9611 21.5018C49.2179 21.0719 50.4414 20.5395 51.6209 19.9093C49.6284 17.7929 47.2629 16.1143 44.6594 14.9693C45.3265 15.889 45.9385 16.9095 46.4862 17.9982V17.9982ZM44.9929 22.363C44.6453 21.3928 44.2416 20.4464 43.7842 19.529C42.0951 16.1652 40.0602 14.1665 38.01 13.5003V23.2925C40.4886 23.195 42.8356 22.87 44.9929 22.3597V22.363Z" fill="white"/>
</svg>
