<svg width="72" height="72" viewBox="0 0 72 72" fill="none" xmlns="http://www.w3.org/2000/svg">
<circle cx="36" cy="36" r="34" stroke="white" stroke-width="4"/>
<path d="M35.3371 25.1176L19.334 38.3382V52.607C19.334 52.9764 19.4803 53.3308 19.7408 53.592C20.0012 53.8532 20.3544 54 20.7228 54L30.4495 53.9748C30.8166 53.9729 31.168 53.8253 31.427 53.5643C31.6859 53.3033 31.8313 52.95 31.8313 52.5817V44.2489C31.8313 43.8795 31.9776 43.5251 32.2381 43.2639C32.4985 43.0027 32.8517 42.8559 33.2201 42.8559H38.7752C39.1435 42.8559 39.4968 43.0027 39.7572 43.2639C40.0177 43.5251 40.164 43.8795 40.164 44.2489V52.5756C40.1634 52.7589 40.1989 52.9406 40.2684 53.1101C40.338 53.2796 40.4402 53.4337 40.5692 53.5635C40.6982 53.6933 40.8515 53.7963 41.0203 53.8666C41.1891 53.9368 41.37 53.973 41.5528 53.973L51.276 54C51.6443 54 51.9975 53.8532 52.258 53.592C52.5184 53.3308 52.6648 52.9764 52.6648 52.607V38.3286L36.6651 25.1176C36.477 24.9655 36.2427 24.8826 36.0011 24.8826C35.7595 24.8826 35.5252 24.9655 35.3371 25.1176V25.1176ZM60.6155 34.1034L53.3591 28.1039V16.0448C53.3591 15.7677 53.2494 15.5019 53.0541 15.306C52.8587 15.1101 52.5938 15 52.3176 15H47.4568C47.1806 15 46.9156 15.1101 46.7203 15.306C46.525 15.5019 46.4152 15.7677 46.4152 16.0448V22.3664L38.6441 15.9533C37.8984 15.3378 36.9626 15.0012 35.9968 15.0012C35.031 15.0012 34.0952 15.3378 33.3494 15.9533L11.378 34.1034C11.2725 34.1909 11.1853 34.2983 11.1212 34.4196C11.0571 34.5409 11.0175 34.6736 11.0046 34.8102C10.9917 34.9469 11.0058 35.0847 11.046 35.2159C11.0863 35.3471 11.1519 35.4691 11.2391 35.5748L13.4525 38.2738C13.5395 38.3799 13.6465 38.4677 13.7674 38.5323C13.8883 38.5969 14.0207 38.6369 14.157 38.6501C14.2934 38.6633 14.431 38.6493 14.5619 38.6091C14.6929 38.5689 14.8147 38.5032 14.9203 38.4157L35.3371 21.548C35.5252 21.396 35.7595 21.313 36.0011 21.313C36.2427 21.313 36.477 21.396 36.6651 21.548L57.0828 38.4157C57.1882 38.5032 57.3098 38.569 57.4406 38.6093C57.5714 38.6497 57.7088 38.6638 57.845 38.6509C57.9813 38.6379 58.1136 38.5982 58.2345 38.5339C58.3554 38.4697 58.4625 38.3822 58.5497 38.2764L60.7631 35.5774C60.8502 35.4711 60.9156 35.3485 60.9553 35.2167C60.9951 35.085 61.0085 34.9466 60.9948 34.8096C60.9811 34.6727 60.9405 34.5398 60.8754 34.4186C60.8103 34.2974 60.722 34.1903 60.6155 34.1034V34.1034Z" fill="white"/>
</svg>
