<svg width="72" height="71" viewBox="0 0 72 71" fill="none" xmlns="http://www.w3.org/2000/svg">
<path d="M69.8222 35.5192C69.8222 53.7308 54.8011 68.5508 36.2011 68.5508C17.6011 68.5508 2.58008 53.7308 2.58008 35.5192C2.58008 17.3077 17.6011 2.48767 36.2011 2.48767C54.8011 2.48767 69.8222 17.3077 69.8222 35.5192Z" stroke="white" stroke-width="4"/>
<path fill-rule="evenodd" clip-rule="evenodd" d="M33.9003 11.3008C31.8113 11.5456 28.5023 12.2577 28.236 12.5201C28.13 12.6244 31.7734 22.1176 32.0082 22.3491C32.0596 22.3999 32.5609 22.3373 33.1221 22.2102C33.6833 22.0831 34.4558 21.9437 34.8388 21.9006L35.5351 21.8222V16.5224V11.2225L34.8994 11.2404C34.5498 11.2502 34.1002 11.2774 33.9003 11.3008ZM37.1093 16.5102V21.8285L37.5634 21.8946C37.8132 21.9309 38.5358 22.0674 39.1691 22.1982C40.6165 22.4969 40.5738 22.4993 40.7191 22.1078C40.8373 21.7897 41.1182 21.0702 43.3315 15.417C43.9054 13.9514 44.3748 12.7057 44.3748 12.6485C44.3748 12.5473 43.4744 12.255 42.0135 11.8823C41.0821 11.6446 39.3824 11.3801 38.1083 11.2746L37.1093 11.1918V16.5102ZM25.1581 13.7795C23.0744 14.8072 20.3394 16.6654 20.4215 16.9977C20.4422 17.0812 22.0563 18.8717 24.0083 20.9765L27.5575 24.8036L28.3071 24.2902C28.7194 24.0078 29.3973 23.6086 29.8135 23.4028C30.2298 23.1971 30.5701 23.0162 30.5698 23.0008C30.5662 22.815 26.6843 13.1873 26.6021 13.1602C26.54 13.1398 25.8902 13.4186 25.1581 13.7795ZM45.709 13.5189C45.6464 13.6664 45.2632 14.6462 44.8572 15.6959C44.4513 16.7457 43.9074 18.1414 43.6487 18.7975C42.3866 21.998 42.0741 22.8264 42.0741 22.9702C42.0741 23.0562 42.3602 23.2729 42.7098 23.4517C43.0594 23.6305 43.6725 24.0005 44.0721 24.2741C44.4717 24.5475 44.8605 24.8089 44.9362 24.8547C45.0721 24.9371 52.1489 17.4457 52.2196 17.1447C52.2924 16.8343 49.1727 14.7245 47.1854 13.7403C46.048 13.1769 45.8655 13.1496 45.709 13.5189ZM18.0187 19.1388C16.4577 20.7656 14.4292 23.6411 14.6729 23.8813C14.7997 24.0062 24.0079 28.5196 24.1359 28.5196C24.1842 28.5196 24.5059 28.1305 24.8504 27.6548C25.195 27.179 25.6782 26.5596 25.9242 26.278L26.3715 25.7662L25.9487 25.3237C25.7161 25.0804 24.1235 23.3658 22.4095 21.5136C20.6955 19.6614 19.2474 18.1181 19.1916 18.0841C19.1357 18.0501 18.6079 18.5248 18.0187 19.1388ZM50.2378 21.6256C48.512 23.4819 46.8968 25.2199 46.6484 25.4881L46.1968 25.9756L46.7497 26.6137C47.0538 26.9647 47.5242 27.5773 47.795 27.9752C48.0657 28.373 48.2986 28.7136 48.3125 28.7318C48.3572 28.7911 57.8756 24.1045 57.9095 24.0065C57.9539 23.8784 56.736 21.9762 55.9491 20.9447C55.1987 19.9609 53.7094 18.3352 53.513 18.2855C53.4375 18.2664 51.9636 19.7694 50.2378 21.6256ZM13.37 26.2233C12.8197 27.5239 12.5609 28.2901 12.2318 29.5932C11.921 30.8236 11.6412 32.3387 11.7121 32.4084C11.7363 32.4323 13.9051 32.6399 16.5314 32.8695C19.1578 33.0993 21.5614 33.3163 21.8727 33.3518L22.4387 33.4164L22.5835 32.7275C22.6631 32.3486 22.8853 31.6002 23.0771 31.0641C23.2689 30.5281 23.4258 30.0585 23.4258 30.0206C23.4258 29.9399 14.0348 25.2988 13.8714 25.2988C13.8107 25.2988 13.585 25.7149 13.37 26.2233ZM53.8806 27.7705C51.2832 29.05 49.1349 30.1181 49.1067 30.1441C49.0784 30.1701 49.2007 30.6339 49.3786 31.1747C49.5564 31.7155 49.7652 32.4718 49.8425 32.8553L49.9831 33.5526L50.5998 33.4838C50.939 33.4458 53.3417 33.2193 55.9392 32.9801C58.5366 32.741 60.6809 32.5288 60.7043 32.5086C60.7825 32.441 60.458 30.7416 60.1135 29.4143C59.7844 28.1458 58.8546 25.5922 58.6859 25.4929C58.6404 25.4661 56.478 26.4911 53.8806 27.7705ZM11.4933 34.6613C11.3787 35.564 11.6273 38.6457 11.9359 40.1484C12.0703 40.8034 12.2009 41.3595 12.2261 41.3843C12.2704 41.4281 22.4739 38.5631 22.5537 38.4846C22.5755 38.463 22.5359 38.1312 22.4658 37.7472C22.3956 37.3631 22.3318 36.5753 22.324 35.9964C22.3149 35.3228 22.2601 34.9286 22.1716 34.9015C22.0496 34.8642 14.7412 34.2173 12.4475 34.0408L11.5803 33.9742L11.4933 34.6613ZM59.6325 34.1391C58.3351 34.2838 56.7229 34.4372 53.3357 34.7381C51.704 34.8831 50.3085 35.0466 50.2345 35.1014C50.1606 35.1563 50.0908 35.5902 50.0794 36.0654C50.0679 36.5407 50.0036 37.2719 49.9365 37.6903C49.8693 38.1087 49.8302 38.4621 49.8494 38.4756C49.8688 38.489 50.375 38.6373 50.9744 38.8052C51.5738 38.973 53.8698 39.6261 56.0766 40.2566C58.2835 40.8871 60.1181 41.4029 60.1536 41.4029C60.1889 41.4029 60.2733 41.148 60.341 40.8363C60.9456 38.0551 61.1492 33.9708 60.6807 34.0223C60.6037 34.0308 60.132 34.0833 59.6325 34.1391ZM17.795 41.4343C14.9978 42.228 12.6956 42.8855 12.6791 42.8954C12.6627 42.9053 12.7856 43.3117 12.9524 43.7984C13.3563 44.977 14.6541 47.5587 15.427 48.7207C16.0001 49.5827 16.0675 49.6439 16.2809 49.4961C16.4083 49.4079 17.2642 48.7726 18.183 48.0843C19.1019 47.396 20.889 46.0591 22.1544 45.1133C23.4198 44.1677 24.5013 43.3542 24.5576 43.3055C24.6139 43.2569 24.4372 42.8532 24.1648 42.4083C23.8924 41.9635 23.5194 41.2339 23.3359 40.7869C23.1522 40.3401 22.9748 39.9783 22.9415 39.9829C22.9082 39.9876 20.5923 40.6407 17.795 41.4343ZM49.1598 40.5381C49.0428 40.8498 48.7113 41.5374 48.4231 42.0661L47.899 43.0276L49.4973 44.2175C54.3509 47.831 56.474 49.3954 56.5248 49.3954C56.6194 49.3954 58.1072 46.8869 58.5252 46.0227C58.9135 45.2201 59.7536 43.1304 59.7536 42.9674C59.7536 42.9207 59.5766 42.8207 59.36 42.7454C58.807 42.5531 49.6127 39.9715 49.4808 39.9715C49.4213 39.9715 49.2768 40.2264 49.1598 40.5381ZM45.6101 45.5235L44.363 46.7345L44.9534 47.6772C45.5929 48.6984 47.2037 51.2654 48.1648 52.7951C48.4945 53.32 48.9652 54.0716 49.2107 54.4652C49.9124 55.5905 49.9994 55.7179 50.0651 55.7164C50.1718 55.7143 51.4629 54.7309 52.4952 53.8654C53.5463 52.9843 55.5178 50.8921 55.5118 50.664C55.5099 50.5896 54.8969 50.0772 54.1496 49.5255C53.4022 48.9739 51.5034 47.5648 49.93 46.3942C48.3565 45.2237 47.0214 44.2764 46.9632 44.2892C46.905 44.3019 46.2961 44.8573 45.6101 45.5235ZM24.2129 45.4396C23.5469 45.9471 21.9939 47.1159 20.7618 48.037C19.5297 48.9582 18.1804 49.967 17.7634 50.279L17.0053 50.8459L17.2479 51.1818C18.0097 52.2356 22.1254 55.837 22.568 55.837C22.6232 55.837 23.0635 55.2062 23.5463 54.4354C24.0292 53.6645 24.628 52.7116 24.8771 52.318C25.1263 51.9243 25.8358 50.797 26.4538 49.8129C27.0717 48.8288 27.7435 47.7612 27.9466 47.4407L28.3159 46.858L27.8386 46.4894C27.5762 46.2867 26.9758 45.7572 26.5045 45.3127C26.0333 44.8682 25.5974 44.5073 25.5358 44.5107C25.4742 44.5141 24.879 44.9321 24.2129 45.4396ZM42.4374 47.7888C42.1377 47.9448 41.4157 48.2433 40.8329 48.452C40.2502 48.6608 39.7733 48.8858 39.7733 48.9519C39.7733 49.1451 41.7102 59.2163 41.7561 59.2615C41.779 59.2841 42.4456 59.1097 43.2377 58.8741C44.8836 58.3844 46.585 57.6982 47.8514 57.0135L48.7245 56.5413L48.2647 55.8015C45.7773 51.799 43.2277 47.7584 43.1179 47.6449C43.0147 47.5385 42.8519 47.5729 42.4374 47.7888ZM26.8264 52.0637C25.2891 54.5121 24.0313 56.5739 24.0313 56.6454C24.0313 57.0063 29.053 59.0159 30.5276 59.245C31.0931 59.3328 31.0734 59.3596 31.2835 58.2228C31.4217 57.4762 32.5186 51.7529 32.8116 50.2494C32.9184 49.7021 32.989 49.1761 32.9687 49.0805C32.9472 48.9801 32.4834 48.7585 31.8716 48.5563C31.2885 48.3636 30.5438 48.0723 30.2165 47.9089L29.6213 47.6119L26.8264 52.0637ZM34.5045 49.455C34.4761 49.5862 34.3392 50.3109 34.2001 51.0654C34.0609 51.82 33.8973 52.6788 33.8364 52.9741C33.6924 53.6724 33.0565 57.0184 32.7984 58.4355C32.6874 59.0446 32.6261 59.572 32.6619 59.6074C32.9467 59.8879 38.1314 59.9372 39.5917 59.6732C40.0747 59.5859 40.0761 59.5842 40.0583 59.0533C40.0486 58.7606 39.8677 57.6353 39.6565 56.5528C39.4453 55.4702 39.1647 54.0209 39.033 53.332C38.9012 52.6431 38.6697 51.4352 38.5186 50.6479L38.2437 49.2166L36.3998 49.2164C34.6539 49.2164 34.5533 49.2291 34.5045 49.455Z" fill="white"/>
</svg>
