<svg width="90" height="90" viewBox="0 0 90 90" fill="none" xmlns="http://www.w3.org/2000/svg">
<circle cx="45" cy="45" r="43" stroke="white" stroke-width="4"/>
<path d="M54.3194 30H47.34C46.69 30 46.0644 30.2343 45.585 30.656L37.5981 37.6847C37.59 37.6925 37.5819 37.7081 37.5737 37.716C36.225 38.9343 36.2494 40.8789 37.4031 42.0894C38.435 43.1749 40.6044 43.4639 41.9612 42.3002C41.9694 42.2924 41.9856 42.2924 41.9937 42.2846L48.4856 36.5679C49.0137 36.1072 49.8425 36.1384 50.3219 36.646C50.8094 37.1537 50.7687 37.9424 50.2406 38.411L48.12 40.2775L59.95 49.5085C60.1856 49.696 60.3969 49.899 60.5919 50.1099V34.9982L56.1556 30.7341C55.6762 30.2655 55.01 30 54.3194 30V30ZM63.2 35.0138V52.4997C63.2 53.882 64.3619 54.9987 65.8 54.9987H71V35.0138H63.2ZM67.1 52.4997C66.385 52.4997 65.8 51.9374 65.8 51.2501C65.8 50.5629 66.385 50.0006 67.1 50.0006C67.815 50.0006 68.4 50.5629 68.4 51.2501C68.4 51.9374 67.815 52.4997 67.1 52.4997ZM19 54.9909H24.2C25.6381 54.9909 26.8 53.8742 26.8 52.4918V35.0138H19V54.9909ZM22.9 50.0006C23.615 50.0006 24.2 50.5629 24.2 51.2501C24.2 51.9374 23.615 52.4997 22.9 52.4997C22.185 52.4997 21.6 51.9374 21.6 51.2501C21.6 50.555 22.185 50.0006 22.9 50.0006ZM58.3169 51.4532L46.1862 41.9878L43.7487 44.1355C41.3356 46.2519 37.6387 46.0489 35.4856 43.7919C33.3 41.4958 33.4706 37.9424 35.8431 35.8494L42.4894 30H35.6806C34.99 30 34.3319 30.2655 33.8444 30.7341L29.4 34.9982V52.484H30.8869L38.24 58.8801C40.4662 60.6217 43.7406 60.2937 45.5525 58.1539L45.5687 58.1382L47.0231 59.3487C48.315 60.364 50.2244 60.1687 51.2725 58.927L53.8237 55.9125L54.2625 56.2561C55.3756 57.123 57.0169 56.9668 57.9187 55.889L58.6906 54.9753C59.6006 53.8976 59.43 52.3278 58.3169 51.4532V51.4532Z" fill="white"/>
</svg>
