<svg width="49" height="52" viewBox="0 0 49 52" fill="none" xmlns="http://www.w3.org/2000/svg">
<path d="M0 26C0 19.1044 2.57914 12.4912 7.17003 7.61522C11.7609 2.73928 17.9875 0 24.48 0C30.9725 0 37.1991 2.73928 41.79 7.61522C46.3809 12.4912 48.96 19.1044 48.96 26C48.96 32.8956 46.3809 39.5088 41.79 44.3848C37.1991 49.2607 30.9725 52 24.48 52C17.9875 52 11.7609 49.2607 7.17003 44.3848C2.57914 39.5088 0 32.8956 0 26ZM22.95 3.50025C20.8998 4.16325 18.8649 6.16525 17.1758 9.529C16.7382 10.4 16.3312 11.349 15.9671 12.363C18.1244 12.8733 20.4714 13.1982 22.95 13.2958V3.50025ZM13.0019 11.5017C13.4365 10.2537 13.9322 9.08375 14.4738 7.99825C15.0029 6.93568 15.6139 5.92146 16.3006 4.966C13.6955 6.1126 11.3289 7.79349 9.33606 9.9125C10.4438 10.5105 11.6708 11.0468 13.0019 11.505V11.5017ZM10.7375 24.375C10.8477 20.8975 11.3128 17.5923 12.0717 14.599C10.4153 14.0364 8.81205 13.3107 7.2828 12.4313C4.84565 15.9066 3.39911 20.0521 3.11508 24.375H10.7345H10.7375ZM15.0215 15.4667C14.3001 18.378 13.8896 21.3662 13.7975 24.375H22.95V16.5457C20.1654 16.4482 17.494 16.0745 15.0215 15.4667ZM26.01 16.5425V24.375H35.1594C35.0684 21.3663 34.6589 18.3781 33.9385 15.4667C31.466 16.0745 28.7946 16.445 26.01 16.5457V16.5425ZM13.8006 27.625C13.9077 30.8328 14.3392 33.8455 15.0215 36.5332C17.6258 35.9056 20.2808 35.5453 22.95 35.4575V27.625H13.8006ZM26.01 27.625V35.4543C28.7946 35.5518 31.466 35.9255 33.9385 36.5332C34.6208 33.8455 35.0523 30.8328 35.1625 27.625H26.01ZM15.9671 39.637C16.3343 40.651 16.7382 41.6 17.1758 42.471C18.8649 45.8348 20.9029 47.8335 22.95 48.4998V38.7075C20.4714 38.805 18.1244 39.13 15.9671 39.6402V39.637ZM16.3037 47.034C15.6159 46.0787 15.0038 45.0645 14.4738 44.0017C13.9102 42.8689 13.4185 41.6974 13.0019 40.495C11.7432 40.9247 10.5175 41.4571 9.33606 42.0875C11.3289 44.2065 13.6955 45.8874 16.3006 47.034H16.3037ZM12.0717 37.401C11.2773 34.207 10.8286 30.9271 10.7345 27.625H3.11508C3.39894 31.948 4.84549 36.0934 7.2828 39.5688C8.721 38.7303 10.3275 38.0023 12.0717 37.401ZM32.6594 47.034C35.2632 45.8881 37.6287 44.2083 39.6209 42.0908C38.4404 41.4604 37.2158 40.928 35.9581 40.4983C35.5414 41.6996 35.0497 42.87 34.4862 44.0017C33.9572 45.0644 33.3462 46.0786 32.6594 47.034ZM26.01 38.7043V48.4998C28.0602 47.8368 30.0951 45.8348 31.7842 42.471C32.2218 41.6 32.6288 40.651 32.9929 39.637C30.6967 39.1023 28.3594 38.7911 26.01 38.7075V38.7043ZM36.8883 37.401C38.6325 38.0023 40.239 38.7303 41.6772 39.5688C44.1145 36.0934 45.5611 31.948 45.8449 27.625H38.2255C38.1314 30.9271 37.6828 34.207 36.8883 37.401ZM45.8449 24.375C45.5611 20.052 44.1145 15.9066 41.6772 12.4313C40.239 13.2697 38.6325 13.9978 36.8883 14.599C37.6472 17.589 38.1123 20.8975 38.2255 24.375H45.8449ZM34.4862 7.99825C35.0278 9.08375 35.5235 10.2537 35.9611 11.5017C37.2179 11.0719 38.4414 10.5395 39.6209 9.90925C37.6284 7.79293 35.2629 6.11429 32.6594 4.96925C33.3265 5.889 33.9385 6.9095 34.4862 7.99825ZM32.9929 12.363C32.6453 11.3928 32.2416 10.4464 31.7842 9.529C30.0951 6.16525 28.0602 4.1665 26.01 3.50025V13.2925C28.4886 13.195 30.8356 12.87 32.9929 12.3597V12.363Z" fill="white"/>
</svg>
