<svg width="72" height="72" viewBox="0 0 72 72" fill="none" xmlns="http://www.w3.org/2000/svg">
<circle cx="36" cy="36" r="34" stroke="white" stroke-width="4"/>
<path fill-rule="evenodd" clip-rule="evenodd" d="M34.0933 11.0373C28.9565 11.4676 24.3297 13.3054 20.3104 16.512C19.2311 17.373 17.401 19.2032 16.5341 20.2884C13.6744 23.8684 11.8887 27.9813 11.2536 32.4512C10.2739 39.3465 12.1533 46.188 16.5363 51.6803C17.3979 52.76 19.2287 54.5923 20.2985 55.4455C27.9006 61.5092 37.9538 62.6967 46.7605 58.5714C48.2456 57.8757 50.2215 56.6272 51.6892 55.4571C52.7613 54.6024 54.5932 52.7697 55.4525 51.6922C59.8479 46.1806 61.7266 39.352 60.746 32.4512C60.109 27.968 58.3399 23.8989 55.4529 20.2764C54.6022 19.209 52.7712 17.3772 51.6892 16.5113C47.8627 13.4487 43.4432 11.6294 38.5314 11.0949C37.6797 11.0022 34.9368 10.9667 34.0933 11.0373ZM38.6975 14.6329C42.6165 15.1288 46.304 16.6852 49.439 19.1665C50.2919 19.8416 52.1429 21.6955 52.8365 22.5695C53.3306 23.1921 54.4396 24.7866 54.4396 24.8744C54.4396 24.8942 54.2216 24.7538 53.9551 24.5624C53.3321 24.1149 52.9331 23.9158 52.0462 23.6098C49.7289 22.8105 47.6624 22.7319 46.1163 23.3842C44.4591 24.0834 43.4779 25.0261 43.0466 26.3333C42.7253 27.3072 42.5884 29.1679 42.7528 30.325C43.036 32.3173 43.9255 33.6975 45.3906 34.4179C46.2466 34.8387 46.7075 34.9286 48.2826 34.982C49.895 35.0366 50.1562 35.1042 50.7097 35.6102C51.3021 36.1519 51.6351 36.9777 51.7472 38.1838C51.8581 39.3762 51.6538 41.3046 51.3343 42.0814C50.3434 44.4901 49.937 46.3362 50.194 47.2619C50.2906 47.6099 50.6075 47.9301 50.9101 47.9855C51.2629 48.05 52.0574 47.9615 52.5503 47.8027C53.0203 47.6512 53.8559 47.246 54.1518 47.026C54.2585 46.9467 54.4296 46.8288 54.5319 46.764L54.7181 46.6463L54.5672 46.8965C51.8231 51.449 47.8632 54.6676 42.8757 56.3994C41.7561 56.7881 40.2669 57.1347 38.7814 57.3521C37.6827 57.513 34.3641 57.5117 33.2182 57.35C29.3997 56.811 26.0617 55.446 23.0844 53.206C18.8564 50.0251 15.9774 45.4888 14.9129 40.3304C14.586 38.7464 14.5284 38.0961 14.5284 35.9843C14.5284 34.4099 14.5515 33.8513 14.6432 33.2016C14.8796 31.5274 15.2707 29.9575 15.8194 28.4803C16.2296 27.3759 17.3777 25.0252 17.4644 25.112C17.4769 25.1245 17.7145 26.1196 17.9923 27.3234C18.6094 29.9968 18.718 30.3049 19.3846 31.2727C20.1744 32.4195 20.8396 32.2572 20.8338 30.9191C20.8308 30.237 20.6881 29.2681 20.5594 29.0563C20.447 28.8716 20.0846 28.7304 19.7223 28.7304C19.4824 28.7304 19.4125 28.5352 19.4552 27.9841C19.4977 27.4364 19.631 27.0143 19.8281 26.8038C19.9888 26.6322 20.8117 26.046 21.1043 25.8948C21.4493 25.7164 21.5743 25.7558 21.8135 26.1185C22.1652 26.6515 22.9205 27.0008 23.2918 26.8021C23.3713 26.7595 23.5124 26.481 23.6836 26.0289C24.0644 25.0235 24.8565 23.4229 25.3175 22.7272C25.8664 21.8989 26.5333 21.2456 27.1251 20.9562C27.6085 20.7199 28.5745 20.499 30.1866 20.2562C31.2122 20.1016 31.7951 19.9071 32.0636 19.6297C32.2781 19.4081 32.2805 19.3995 32.2691 18.8933C32.251 18.0893 31.9687 17.4677 31.5263 17.2577C31.094 17.0524 30.5336 17.2203 29.5266 17.8565C28.7031 18.3768 28.3556 18.4459 28.1489 18.1303C27.7219 17.4784 29.112 16.3803 31.218 15.7059C32.3146 15.3548 33.1243 15.2384 33.5822 15.3662C33.8303 15.4354 33.982 15.8161 34.0635 16.5736C34.1936 17.7839 34.3628 18.0786 34.9153 18.0572C35.6565 18.0285 36.9886 16.922 37.4889 15.9194C37.7761 15.344 37.8307 14.9285 37.6527 14.6743C37.5587 14.54 37.5617 14.5353 37.7408 14.5353C37.8427 14.5353 38.2732 14.5792 38.6975 14.6329ZM21.9352 32.7873C21.7022 32.8637 21.3673 33.0444 21.1441 33.2141C20.7005 33.5514 20.5909 34.2288 20.5945 36.6097C20.5974 38.4863 20.6727 39.3995 20.9092 40.4242C21.1043 41.2692 21.2185 41.4808 21.8207 42.1126C23.0004 43.3507 24.0852 44.9973 24.4982 46.1773C24.6075 46.4893 24.6522 46.8018 24.6905 47.5218C24.7669 48.9582 25.2056 50.4735 25.8788 51.6266C26.2021 52.1806 28.0785 54.1866 28.4512 54.3768C28.7647 54.5368 29.0657 54.4944 29.2463 54.2647C29.448 54.0082 29.4135 53.6068 29.1169 52.7592C28.5812 51.2278 28.5414 51.066 28.5356 50.3983C28.5272 49.4376 28.6412 49.2468 30.7193 46.7401C32.043 45.1434 32.3733 44.728 32.8822 44.0199C34.1599 42.2422 34.7467 40.8214 34.569 39.9362C34.4782 39.4837 34.105 38.913 33.5693 38.4074C32.9184 37.7932 32.5038 37.5872 30.9992 37.1308C30.0672 36.8481 29.7558 36.6868 29.2204 36.2089C27.5835 34.7478 25.5584 33.4645 24.1156 32.9739C23.6164 32.8042 23.423 32.7718 22.8107 32.7553C22.4154 32.7446 22.0214 32.759 21.9352 32.7873Z" fill="white"/>
</svg>
