<svg width="72" height="72" viewBox="0 0 72 72" fill="none" xmlns="http://www.w3.org/2000/svg">
<circle cx="36" cy="36" r="34" stroke="white" stroke-width="4"/>
<path fill-rule="evenodd" clip-rule="evenodd" d="M33.6742 11.112C31.5629 11.3636 28.2187 12.0954 27.9496 12.365C27.8425 12.4723 31.5246 22.2278 31.7619 22.4658C31.8139 22.518 32.3205 22.4536 32.8876 22.3231C33.4549 22.1924 34.2355 22.0492 34.6226 22.0048L35.3263 21.9243V16.478V11.0316L34.6838 11.05C34.3305 11.0601 33.8761 11.088 33.6742 11.112ZM36.9173 16.4655V21.9308L37.3762 21.9987C37.6287 22.036 38.3589 22.1763 38.999 22.3107C40.4618 22.6176 40.4186 22.6201 40.5654 22.2178C40.6849 21.8909 40.9688 21.1515 43.2057 15.3421C43.7856 13.8359 44.2601 12.5558 44.2601 12.497C44.2601 12.393 43.3501 12.0926 41.8737 11.7097C40.9323 11.4653 39.2146 11.1936 37.9269 11.0851L36.9173 11V16.4655ZM24.8389 13.6593C22.7331 14.7154 19.969 16.6249 20.052 16.9665C20.0729 17.0523 21.7041 18.8922 23.6769 21.0553L27.2639 24.9881L28.0214 24.4605C28.4381 24.1703 29.1232 23.76 29.5438 23.5486C29.9646 23.3372 30.3085 23.1513 30.3082 23.1355C30.3045 22.9446 26.3814 13.0506 26.2983 13.0228C26.2355 13.0019 25.5788 13.2883 24.8389 13.6593ZM45.6085 13.3914C45.5452 13.5431 45.1579 14.5499 44.7476 15.6287C44.3373 16.7074 43.7877 18.1417 43.5262 18.816C42.2507 22.105 41.9349 22.9562 41.9349 23.1041C41.9349 23.1925 42.2241 23.4151 42.5774 23.5988C42.9307 23.7826 43.5503 24.1629 43.9542 24.444C44.358 24.7249 44.751 24.9935 44.8275 25.0406C44.9648 25.1253 52.1168 17.4268 52.1883 17.1175C52.2619 16.7985 49.109 14.6304 47.1006 13.619C45.951 13.04 45.7666 13.0119 45.6085 13.3914ZM17.6236 19.1667C16.046 20.8385 13.9958 23.7935 14.2422 24.0403C14.3703 24.1686 23.6765 28.8069 23.8059 28.8069C23.8547 28.8069 24.1798 28.407 24.5279 27.9181C24.8762 27.4292 25.3645 26.7926 25.6132 26.5033L26.0653 25.9773L25.6379 25.5226C25.4028 25.2725 23.7933 23.5106 22.0611 21.6072C20.3288 19.7037 18.8654 18.1178 18.809 18.0829C18.7524 18.0479 18.2191 18.5357 17.6236 19.1667ZM50.1854 21.7223C48.4412 23.6299 46.8089 25.416 46.5578 25.6915L46.1015 26.1926L46.6602 26.8483C46.9675 27.2089 47.443 27.8385 47.7166 28.2474C47.9903 28.6562 48.2256 29.0062 48.2397 29.0249C48.2848 29.0859 57.9045 24.2696 57.9387 24.169C57.9836 24.0373 56.7527 22.0825 55.9575 21.0225C55.1991 20.0116 53.694 18.3409 53.4955 18.2898C53.4192 18.2702 51.9296 19.8148 50.1854 21.7223ZM12.9254 26.447C12.3693 27.7836 12.1078 28.571 11.7751 29.9101C11.461 31.1745 11.1783 32.7315 11.2499 32.8031C11.2743 32.8277 13.4662 33.041 16.1205 33.277C18.7748 33.5131 21.204 33.7361 21.5186 33.7726L22.0906 33.839L22.237 33.131C22.3174 32.7417 22.5419 31.9726 22.7358 31.4217C22.9296 30.8709 23.0882 30.3882 23.0882 30.3494C23.0882 30.2664 13.5973 25.497 13.4322 25.497C13.3709 25.497 13.1427 25.9246 12.9254 26.447ZM53.867 28.037C51.2419 29.3519 49.0708 30.4495 49.0423 30.4763C49.0137 30.503 49.1374 30.9796 49.3171 31.5353C49.4968 32.0911 49.7078 32.8683 49.786 33.2624L49.9281 33.979L50.5513 33.9082C50.8941 33.8692 53.3224 33.6364 55.9475 33.3907C58.5725 33.145 60.7397 32.9269 60.7633 32.9061C60.8423 32.8367 60.5144 31.0903 60.1662 29.7263C59.8335 28.4227 58.8939 25.7986 58.7234 25.6964C58.6774 25.669 56.4921 26.7223 53.867 28.037ZM11.0287 35.1183C10.913 36.046 11.1642 39.2128 11.476 40.7571C11.6119 41.4302 11.7439 42.0017 11.7694 42.0272C11.8142 42.0722 22.1262 39.128 22.2069 39.0474C22.2289 39.0252 22.1889 38.6841 22.118 38.2895C22.047 37.8948 21.9825 37.0852 21.9747 36.4903C21.9655 35.7982 21.9101 35.393 21.8206 35.3652C21.6974 35.3268 14.3112 34.662 11.9931 34.4807L11.1167 34.4122L11.0287 35.1183ZM59.6801 34.5817C58.3689 34.7304 56.7395 34.8881 53.3163 35.1972C51.6672 35.3463 50.2569 35.5142 50.1821 35.5706C50.1075 35.627 50.0369 36.0729 50.0253 36.5613C50.0137 37.0497 49.9487 37.8011 49.8809 38.231C49.813 38.6611 49.7735 39.0242 49.7929 39.038C49.8125 39.0519 50.3241 39.2043 50.9299 39.3767C51.5356 39.5492 53.8561 40.2204 56.0864 40.8683C58.3168 41.5163 60.1708 42.0463 60.2067 42.0463C60.2424 42.0463 60.3277 41.7844 60.3961 41.464C61.0072 38.6059 61.2129 34.4087 60.7394 34.4617C60.6616 34.4704 60.1849 34.5244 59.6801 34.5817ZM17.3975 42.0786C14.5705 42.8942 12.2438 43.5699 12.2272 43.58C12.2106 43.5902 12.3348 44.0079 12.5034 44.508C12.9116 45.7192 14.2232 48.3722 15.0043 49.5664C15.5835 50.4522 15.6517 50.5151 15.8673 50.3632C15.996 50.2726 16.861 49.6197 17.7897 48.9124C18.7183 48.205 20.5244 46.8312 21.8032 45.8593C23.0821 44.8876 24.1751 44.0515 24.232 44.0015C24.2889 43.9516 24.1104 43.5366 23.835 43.0795C23.5598 42.6224 23.1828 41.8726 22.9973 41.4133C22.8117 40.9541 22.6324 40.5823 22.5987 40.5871C22.5651 40.5918 20.2245 41.263 17.3975 42.0786ZM49.096 41.1576C48.9778 41.4779 48.6427 42.1845 48.3514 42.7278L47.8218 43.7159L49.4371 44.9387C54.3423 48.6521 56.488 50.2597 56.5393 50.2597C56.6349 50.2597 58.1386 47.6819 58.561 46.7938C58.9534 45.969 59.8025 43.8215 59.8025 43.6541C59.8025 43.606 59.6235 43.5033 59.4047 43.4259C58.8458 43.2283 49.5537 40.5753 49.4204 40.5753C49.3602 40.5753 49.2142 40.8373 49.096 41.1576ZM45.5085 46.2808L44.2481 47.5253L44.8448 48.4941C45.4911 49.5434 47.1191 52.1814 48.0904 53.7535C48.4236 54.2929 48.8993 55.0652 49.1474 55.4697C49.8566 56.6261 49.9445 56.757 50.0109 56.7555C50.1187 56.7533 51.4235 55.7427 52.4668 54.8533C53.5291 53.9479 55.5216 51.7978 55.5156 51.5634C55.5136 51.4869 54.8941 50.9604 54.1388 50.3935C53.3835 49.8266 51.4645 48.3785 49.8743 47.1755C48.2841 45.9727 46.9349 44.9992 46.876 45.0124C46.8171 45.0255 46.2018 45.5962 45.5085 46.2808ZM23.8837 46.1946C23.2106 46.7161 21.6411 47.9172 20.3959 48.8638C19.1506 49.8104 17.787 50.8472 17.3656 51.1677L16.5994 51.7504L16.8446 52.0955C17.6145 53.1784 21.774 56.8795 22.2213 56.8795C22.2771 56.8795 22.7221 56.2312 23.21 55.4391C23.6981 54.6469 24.3032 53.6677 24.555 53.2631C24.8068 52.8586 25.5239 51.7001 26.1484 50.6888C26.7729 49.6774 27.4519 48.5804 27.6571 48.251L28.0303 47.6522L27.5479 47.2734C27.2827 47.0651 26.676 46.5209 26.1997 46.0642C25.7235 45.6074 25.2829 45.2366 25.2206 45.24C25.1584 45.2436 24.5568 45.6731 23.8837 46.1946ZM42.302 48.6087C41.9991 48.7691 41.2695 49.0758 40.6805 49.2903C40.0916 49.5048 39.6096 49.736 39.6096 49.8039C39.6096 50.0025 41.5671 60.3521 41.6135 60.3986C41.6366 60.4218 42.3103 60.2425 43.1108 60.0004C44.7742 59.4972 46.4938 58.7921 47.7737 58.0884L48.656 57.6032L48.1913 56.8429C45.6775 52.7297 43.1008 48.5774 42.9898 48.4609C42.8855 48.3515 42.7209 48.3868 42.302 48.6087ZM26.5249 53.0018C24.9713 55.5179 23.7002 57.6367 23.7002 57.7101C23.7002 58.0811 28.7753 60.1462 30.2655 60.3817C30.837 60.4719 30.8172 60.4994 31.0295 59.3312C31.1692 58.5639 32.2777 52.6824 32.5739 51.1373C32.6818 50.5749 32.7531 50.0344 32.7326 49.9361C32.7109 49.833 32.2422 49.6052 31.6238 49.3974C31.0346 49.1995 30.2819 48.9001 29.9511 48.7322L29.3496 48.4269L26.5249 53.0018ZM34.2847 50.321C34.2561 50.4559 34.1177 51.2006 33.9771 51.9759C33.8365 52.7513 33.6711 53.6339 33.6096 53.9374C33.4641 54.655 32.8213 58.0934 32.5605 59.5498C32.4483 60.1757 32.3864 60.7177 32.4226 60.7541C32.7104 61.0423 37.9503 61.0929 39.4261 60.8216C39.9143 60.7319 39.9156 60.7302 39.8976 60.1847C39.8878 59.8838 39.705 58.7275 39.4915 57.615C39.2781 56.5025 38.9946 55.0131 38.8614 54.3051C38.7283 53.5972 38.4943 52.356 38.3415 51.5469L38.0637 50.076L36.2002 50.0758C34.4358 50.0758 34.3341 50.0888 34.2847 50.321Z" fill="white"/>
<path fill-rule="evenodd" clip-rule="evenodd" d="M35.1148 24.4102C32.7298 24.6099 30.5816 25.4632 28.7155 26.952C28.2144 27.3518 27.3647 28.2015 26.9623 28.7053C25.6345 30.3675 24.8055 32.277 24.5106 34.3523C24.0557 37.5537 24.9283 40.7301 26.9633 43.2801C27.3633 43.7814 28.2133 44.6321 28.71 45.0283C32.2396 47.8436 36.9071 48.3949 40.996 46.4796C41.6854 46.1566 42.6028 45.5769 43.2843 45.0336C43.782 44.6368 44.6326 43.786 45.0315 43.2857C47.0722 40.7267 47.9445 37.5563 47.4892 34.3523C47.1935 32.2709 46.3721 30.3817 45.0317 28.6998C44.6367 28.2042 43.7866 27.3537 43.2843 26.9517C41.5077 25.5297 39.4558 24.6851 37.1753 24.4369C36.7799 24.3939 35.5064 24.3774 35.1148 24.4102ZM37.2524 26.0796C39.0719 26.3098 40.784 27.0324 42.2395 28.1845C42.6355 28.4979 43.4949 29.3586 43.8169 29.7644C44.0463 30.0535 44.5612 30.7938 44.5612 30.8345C44.5612 30.8437 44.46 30.7786 44.3363 30.6897C44.047 30.4819 43.8618 30.3895 43.45 30.2474C42.3742 29.8763 41.4147 29.8398 40.6968 30.1427C39.9274 30.4673 39.4719 30.905 39.2716 31.5119C39.1225 31.9641 39.0589 32.828 39.1352 33.3652C39.2667 34.2902 39.6797 34.931 40.3599 35.2654C40.7574 35.4608 40.9713 35.5025 41.7026 35.5273C42.4513 35.5527 42.5725 35.5841 42.8295 35.819C43.1046 36.0705 43.2591 36.4539 43.3112 37.0139C43.3627 37.5675 43.2678 38.4629 43.1195 38.8235C42.6594 39.9418 42.4708 40.799 42.5901 41.2287C42.6349 41.3903 42.782 41.539 42.9225 41.5647C43.0863 41.5946 43.4552 41.5535 43.6841 41.4798C43.9023 41.4095 44.2903 41.2214 44.4276 41.1192C44.4772 41.0824 44.5566 41.0277 44.6041 40.9976L44.6905 40.9429L44.6205 41.0591C43.3464 43.1727 41.5079 44.6671 39.1923 45.4711C38.6725 45.6516 37.9811 45.8125 37.2914 45.9135C36.7812 45.9882 35.2405 45.9876 34.7085 45.9125C32.9356 45.6622 31.3858 45.0285 30.0035 43.9885C28.0404 42.5117 26.7038 40.4055 26.2095 38.0106C26.0578 37.2751 26.0311 36.9732 26.0311 35.9927C26.0311 35.2617 26.0418 35.0024 26.0843 34.7007C26.1941 33.9234 26.3757 33.1946 26.6304 32.5087C26.8209 31.996 27.3539 30.9045 27.3942 30.9449C27.4 30.9507 27.5103 31.4127 27.6393 31.9716C27.9258 33.2128 27.9762 33.3558 28.2857 33.8052C28.6524 34.3376 28.9612 34.2623 28.9585 33.641C28.9572 33.3243 28.8909 32.8745 28.8311 32.7762C28.779 32.6904 28.6107 32.6248 28.4425 32.6248C28.3311 32.6248 28.2987 32.5342 28.3185 32.2783C28.3382 32.024 28.4001 31.8281 28.4916 31.7303C28.5662 31.6506 28.9483 31.3785 29.0841 31.3083C29.2443 31.2255 29.3024 31.2438 29.4134 31.4122C29.5767 31.6596 29.9274 31.8218 30.0997 31.7295C30.1367 31.7098 30.2022 31.5805 30.2817 31.3706C30.4585 30.9038 30.8262 30.1606 31.0403 29.8376C31.2951 29.4531 31.6047 29.1497 31.8795 29.0154C32.1039 28.9057 32.5524 28.8031 33.3009 28.6904C33.7771 28.6186 34.0477 28.5283 34.1724 28.3995C34.272 28.2966 34.2731 28.2926 34.2678 28.0576C34.2594 27.6843 34.1283 27.3957 33.9229 27.2982C33.7222 27.2029 33.462 27.2808 32.9945 27.5762C32.6121 27.8178 32.4508 27.8499 32.3549 27.7033C32.1566 27.4007 32.802 26.8909 33.7798 26.5777C34.2889 26.4147 34.6648 26.3607 34.8775 26.42C34.9926 26.4521 35.0631 26.6289 35.1009 26.9806C35.1613 27.5425 35.2399 27.6794 35.4964 27.6694C35.8405 27.6561 36.459 27.1424 36.6913 26.6769C36.8246 26.4097 36.85 26.2168 36.7673 26.0988C36.7237 26.0364 36.7251 26.0342 36.8082 26.0342C36.8555 26.0342 37.0554 26.0546 37.2524 26.0796ZM29.4699 34.5084C29.3617 34.5439 29.2062 34.6277 29.1026 34.7065C28.8967 34.8631 28.8458 35.1777 28.8474 36.2831C28.8488 37.1544 28.8838 37.5784 28.9936 38.0541C29.0841 38.4464 29.1372 38.5447 29.4167 38.838C29.9645 39.4128 30.4681 40.1773 30.6599 40.7252C30.7106 40.87 30.7314 41.0151 30.7492 41.3494C30.7847 42.0163 30.9883 42.7198 31.3009 43.2552C31.451 43.5124 32.3222 44.4438 32.4952 44.5321C32.6407 44.6064 32.7805 44.5867 32.8644 44.48C32.958 44.361 32.942 44.1746 32.8043 43.781C32.5556 43.0701 32.5371 42.9949 32.5344 42.6849C32.5305 42.2389 32.5834 42.1503 33.5482 40.9865C34.1628 40.2452 34.3162 40.0523 34.5524 39.7235C35.1457 38.8982 35.4181 38.2385 35.3356 37.8275C35.2934 37.6174 35.1202 37.3524 34.8714 37.1177C34.5693 36.8325 34.3767 36.7369 33.6782 36.525C33.2455 36.3938 33.1009 36.3189 32.8523 36.097C32.0924 35.4186 31.1521 34.8228 30.4822 34.595C30.2505 34.5162 30.1607 34.5012 29.8764 34.4935C29.6928 34.4886 29.5099 34.4953 29.4699 34.5084Z" fill="white"/>
</svg>
