<svg width="54" height="54" viewBox="0 0 54 54" fill="none" xmlns="http://www.w3.org/2000/svg">
<mask id="path-1-outside-1_1213_6549" maskUnits="userSpaceOnUse" x="0" y="0" width="54" height="54" fill="black">
<rect fill="white" width="54" height="54"/>
<path fill-rule="evenodd" clip-rule="evenodd" d="M6.71891 10.7493C11.2605 5.1651 17.5458 1.77548 24.6094 1.10124C28.2284 0.755878 32.4761 1.30656 35.8853 2.56321C39.0036 3.71268 42.5463 5.90107 44.7485 8.03831L45.2819 8.55594V6.92942C45.2819 5.11659 45.3309 4.95123 45.9278 4.75404C46.3438 4.61655 46.6963 4.73055 46.9828 5.09513C47.1725 5.33666 47.1899 5.54646 47.2349 8.1282C47.2853 11.0168 47.2511 11.3368 46.8567 11.6646C46.7087 11.7875 46.1499 11.8303 43.9712 11.8856C42.4851 11.9232 41.1221 11.9298 40.9423 11.9003C39.9204 11.7323 39.8034 10.402 40.7777 10.0312C40.9156 9.97866 41.6769 9.93371 42.4695 9.93127L43.9105 9.9269L43.2502 9.31621C40.1651 6.46294 36.2296 4.42099 32.0251 3.492C29.793 2.99888 26.2387 2.85854 23.9024 3.17135C16.3575 4.1815 10.0286 8.41997 6.10879 15.0876C2.89557 20.5535 2.06653 27.5329 3.89902 33.6911C4.3483 35.201 4.43525 35.4907 4.36338 35.7333C4.34588 35.7924 4.31895 35.8487 4.28555 35.9192C4.00121 36.5191 3.31145 36.6515 2.83025 36.1987C2.39059 35.7849 1.73293 33.6369 1.35889 31.3935C0.614787 26.93 1.03393 22.2945 2.55891 18.1222C3.43965 15.7126 5.15501 12.6724 6.71891 10.7493ZM49.852 19.546C49.5323 18.6266 49.5556 18.1954 49.9441 17.8479C50.3596 17.4763 50.7711 17.4744 51.1653 17.8426C51.7208 18.3613 52.5458 21.4967 52.8575 24.2748C53.4472 29.5278 52.1804 35.5357 49.5392 40.0123C45.3443 47.122 38.7162 51.5752 30.4815 52.8168C28.8541 53.0621 25.2125 53.0608 23.492 52.8143C18.1427 52.0476 12.9981 49.617 9.39708 46.1551L8.71139 45.4959V47.1443C8.71139 48.7514 8.70519 48.799 8.46616 49.0382C8.14566 49.3591 7.76533 49.4473 7.38398 49.2891C6.8338 49.061 6.80596 48.8996 6.76655 45.71L6.73049 42.7892L7.01198 42.5066L7.29347 42.2241L10.3253 42.1932L13.357 42.1623L13.6246 42.4807C14.0667 43.0067 13.9293 43.6774 13.3148 43.9919C13.181 44.0604 12.4977 44.1055 11.5933 44.1055H10.0938L10.4438 44.4713C10.6363 44.6725 11.251 45.207 11.8097 45.6589C15.3996 48.563 19.5481 50.3263 24.203 50.9266C25.4134 51.0827 28.5182 51.0826 29.7902 50.9265C33.4533 50.4767 37.3394 49.0578 40.2534 47.1058C47.0317 42.5655 51.0722 35.0562 51.0722 26.999C51.0722 24.6693 50.5726 21.6173 49.852 19.546ZM21.0383 25.2918C21.7036 23.1635 23.2536 21.6426 25.4079 21.0042C26.3448 20.7266 28.0107 20.7959 29.026 21.1546C31.8939 22.168 33.6437 25.1914 33.0526 28.1119C32.8582 29.0722 32.5959 29.7067 32.0743 30.4784C30.5321 32.7603 27.6252 33.7122 24.9476 32.8121C22.9636 32.1452 21.3898 30.3432 20.938 28.2215C20.7582 27.3767 20.8038 26.0416 21.0383 25.2918ZM30.0047 24.0489C29.4833 23.5041 28.6144 23.0306 27.8297 22.8638C25.4412 22.356 23.1515 24.0153 22.8427 26.4779C22.7445 27.2607 22.7686 27.5249 23.0079 28.2918C23.36 29.4202 24.1673 30.3129 25.3276 30.8569C25.8668 31.1097 26.0423 31.1393 27.0019 31.1393C28.0365 31.1393 28.1006 31.126 28.8478 30.7563C31.4174 29.485 31.9961 26.1295 30.0047 24.0489Z"/>
<path fill-rule="evenodd" clip-rule="evenodd" d="M29.6886 11.3867C29.3009 11.6036 28.8664 12.1815 27.9909 13.6448L27.7155 14.1053H26.4949H25.2743L24.5654 13.0476C24.1755 12.4659 23.7288 11.9002 23.5727 11.7906C23.1522 11.4951 22.5535 11.3291 22.1191 11.3874C21.5385 11.4654 18.7262 12.7628 18.3592 13.1219C17.6242 13.8413 17.552 14.3258 17.9499 15.8664C18.1207 16.5274 18.2603 17.1405 18.2603 17.2287C18.2603 17.317 18.0661 17.602 17.8286 17.862C17.5911 18.1219 17.2531 18.4977 17.0774 18.6971L16.7579 19.0595L15.5536 18.8178C14.2498 18.5562 13.7994 18.5692 13.1777 18.8867C12.5899 19.1869 12.3202 19.6235 11.6958 21.2859C10.7196 23.8847 10.872 24.4182 12.9271 25.5963C13.43 25.8845 13.8959 26.1742 13.9624 26.24C14.1212 26.397 14.1748 28.6372 14.0221 28.7327C12.1267 29.918 11.5215 30.5177 11.3999 31.3312C11.3246 31.8355 11.4503 32.2328 12.2082 33.8851C13.2974 36.2594 13.7946 36.5368 15.9562 35.9761C16.6164 35.8049 17.2107 35.667 17.2768 35.6696C17.3428 35.6724 17.7739 36.027 18.2345 36.4578L19.0723 37.241L18.863 38.3088C18.3643 40.8553 18.6271 41.2864 21.2803 42.274C23.9489 43.2673 24.4662 43.1178 25.6762 41.0038C25.9643 40.5004 26.2307 40.06 26.2682 40.0253C26.3056 39.9905 26.8392 39.9353 27.4538 39.9025L28.5712 39.8431L29.2252 40.8051C30.0941 42.0831 30.3669 42.3467 31.0163 42.5356C31.7082 42.737 31.9785 42.6671 33.8778 41.7961C35.4815 41.0606 35.9347 40.6854 36.1484 39.9163C36.2572 39.5245 36.2364 39.344 35.9507 38.2036C35.7751 37.5025 35.6313 36.8695 35.6313 36.7969C35.6313 36.571 37.0873 35.06 37.3077 35.0572C37.4195 35.0557 37.9909 35.1466 38.5775 35.2592C39.831 35.4997 40.3279 35.4557 40.9391 35.0499C41.4894 34.6845 41.589 34.5077 42.2761 32.6751C42.9073 30.9915 42.98 30.431 42.6505 29.7878C42.385 29.2693 42.1386 29.0625 40.9645 28.3719L39.9487 27.7744L39.896 26.6602C39.8671 26.0474 39.8568 25.5003 39.8733 25.4443C39.8896 25.3884 40.3133 25.0737 40.8147 24.7449C41.8996 24.0334 42.385 23.5257 42.5433 22.9368C42.7106 22.3149 42.6343 22.0187 41.8598 20.2851C41.1026 18.5904 40.7246 18.0975 40.0193 17.886C39.4297 17.7092 39.1435 17.735 37.9678 18.0714C37.3813 18.2392 36.8329 18.3751 36.7489 18.3734C36.665 18.3717 36.2354 18.0212 35.7943 17.5945L34.9921 16.8187L35.2104 15.64C35.4752 14.2105 35.4789 13.8688 35.2355 13.3425C34.9127 12.6445 34.5666 12.4195 32.8125 11.7665C30.9331 11.0669 30.3805 10.9998 29.6886 11.3867ZM33.4282 14.1077C33.3828 14.0685 32.7715 13.8231 32.0699 13.5623C31.3681 13.3017 30.751 13.0893 30.6985 13.0905C30.6458 13.0918 30.3573 13.532 30.0573 14.069C29.4222 15.2053 28.9302 15.7403 28.3656 15.9084C27.8196 16.0709 25.1023 16.0997 24.7231 15.947C24.1622 15.7209 23.8627 15.4207 23.1443 14.3642L22.4212 13.3006L21.9915 13.4888C21.3626 13.7641 19.7434 14.519 19.71 14.5524C19.6941 14.5683 19.8183 15.1034 19.986 15.7415C20.3372 17.0789 20.3606 17.5548 20.1027 18.1222C19.8247 18.7339 18.2447 20.4114 17.6362 20.7409C17.013 21.0783 16.6882 21.0879 15.3218 20.8089C14.7516 20.6925 14.2271 20.6195 14.1563 20.6466C14.0355 20.6931 13.0795 23.0814 13.0795 23.3368C13.0795 23.4016 13.5127 23.7098 14.042 24.0217C15.8624 25.0942 15.9686 25.2737 16.0574 27.4274C16.1125 28.7653 16.0991 28.9444 15.9131 29.3596C15.6371 29.9757 15.4476 30.1601 14.3359 30.8939C13.8126 31.2394 13.3843 31.5811 13.3843 31.6532C13.3843 31.7659 14.4607 34.2338 14.5479 34.3211C14.5652 34.3384 15.099 34.2131 15.7341 34.0427C17.0181 33.6982 17.5854 33.6599 18.1167 33.8822C18.3136 33.9645 18.9719 34.4958 19.5798 35.0626C21.1111 36.4908 21.1884 36.7272 20.7936 38.7753C20.6784 39.3731 20.6212 39.8958 20.6666 39.9368C20.7772 40.0367 23.2292 40.9537 23.3762 40.9501C23.4398 40.9485 23.7168 40.5481 23.9915 40.0602C25.0479 38.1847 25.257 38.0554 27.3914 37.9583C28.8294 37.8928 28.8616 37.8961 29.4016 38.1606C29.9607 38.4343 29.9371 38.4071 31.2599 40.3121L31.5563 40.7391L32.8065 40.1696C33.4942 39.8563 34.1078 39.5607 34.1702 39.5126C34.2515 39.4499 34.1998 39.13 33.9878 38.3839C33.6038 37.0324 33.5917 36.3224 33.9429 35.7418C34.35 35.069 35.9576 33.4506 36.4059 33.2624C36.9115 33.0502 37.5656 33.0647 38.8312 33.3162C39.3899 33.4272 39.8749 33.4862 39.9089 33.4474C39.9828 33.363 40.9137 30.8208 40.9137 30.7035C40.9137 30.6588 40.6051 30.4444 40.228 30.227C38.7617 29.3817 38.496 29.1674 38.2289 28.615C37.9959 28.1329 37.9726 27.9596 37.9536 26.563C37.9246 24.4373 37.9741 24.3427 39.7455 23.1354C40.2483 22.7927 40.6742 22.5016 40.692 22.4884C40.7096 22.4754 40.4398 21.84 40.0923 21.0767C39.6533 20.1119 39.4188 19.7047 39.3236 19.7412C38.7225 19.9722 37.1067 20.3362 36.6797 20.3369C35.9828 20.3381 35.5718 20.0853 34.4017 18.9358C33.0151 17.5736 32.9185 17.2513 33.3013 15.2659C33.4165 14.6682 33.4737 14.147 33.4282 14.1077Z"/>
</mask>
<path fill-rule="evenodd" clip-rule="evenodd" d="M6.71891 10.7493C11.2605 5.1651 17.5458 1.77548 24.6094 1.10124C28.2284 0.755878 32.4761 1.30656 35.8853 2.56321C39.0036 3.71268 42.5463 5.90107 44.7485 8.03831L45.2819 8.55594V6.92942C45.2819 5.11659 45.3309 4.95123 45.9278 4.75404C46.3438 4.61655 46.6963 4.73055 46.9828 5.09513C47.1725 5.33666 47.1899 5.54646 47.2349 8.1282C47.2853 11.0168 47.2511 11.3368 46.8567 11.6646C46.7087 11.7875 46.1499 11.8303 43.9712 11.8856C42.4851 11.9232 41.1221 11.9298 40.9423 11.9003C39.9204 11.7323 39.8034 10.402 40.7777 10.0312C40.9156 9.97866 41.6769 9.93371 42.4695 9.93127L43.9105 9.9269L43.2502 9.31621C40.1651 6.46294 36.2296 4.42099 32.0251 3.492C29.793 2.99888 26.2387 2.85854 23.9024 3.17135C16.3575 4.1815 10.0286 8.41997 6.10879 15.0876C2.89557 20.5535 2.06653 27.5329 3.89902 33.6911C4.3483 35.201 4.43525 35.4907 4.36338 35.7333C4.34588 35.7924 4.31895 35.8487 4.28555 35.9192C4.00121 36.5191 3.31145 36.6515 2.83025 36.1987C2.39059 35.7849 1.73293 33.6369 1.35889 31.3935C0.614787 26.93 1.03393 22.2945 2.55891 18.1222C3.43965 15.7126 5.15501 12.6724 6.71891 10.7493ZM49.852 19.546C49.5323 18.6266 49.5556 18.1954 49.9441 17.8479C50.3596 17.4763 50.7711 17.4744 51.1653 17.8426C51.7208 18.3613 52.5458 21.4967 52.8575 24.2748C53.4472 29.5278 52.1804 35.5357 49.5392 40.0123C45.3443 47.122 38.7162 51.5752 30.4815 52.8168C28.8541 53.0621 25.2125 53.0608 23.492 52.8143C18.1427 52.0476 12.9981 49.617 9.39708 46.1551L8.71139 45.4959V47.1443C8.71139 48.7514 8.70519 48.799 8.46616 49.0382C8.14566 49.3591 7.76533 49.4473 7.38398 49.2891C6.8338 49.061 6.80596 48.8996 6.76655 45.71L6.73049 42.7892L7.01198 42.5066L7.29347 42.2241L10.3253 42.1932L13.357 42.1623L13.6246 42.4807C14.0667 43.0067 13.9293 43.6774 13.3148 43.9919C13.181 44.0604 12.4977 44.1055 11.5933 44.1055H10.0938L10.4438 44.4713C10.6363 44.6725 11.251 45.207 11.8097 45.6589C15.3996 48.563 19.5481 50.3263 24.203 50.9266C25.4134 51.0827 28.5182 51.0826 29.7902 50.9265C33.4533 50.4767 37.3394 49.0578 40.2534 47.1058C47.0317 42.5655 51.0722 35.0562 51.0722 26.999C51.0722 24.6693 50.5726 21.6173 49.852 19.546ZM21.0383 25.2918C21.7036 23.1635 23.2536 21.6426 25.4079 21.0042C26.3448 20.7266 28.0107 20.7959 29.026 21.1546C31.8939 22.168 33.6437 25.1914 33.0526 28.1119C32.8582 29.0722 32.5959 29.7067 32.0743 30.4784C30.5321 32.7603 27.6252 33.7122 24.9476 32.8121C22.9636 32.1452 21.3898 30.3432 20.938 28.2215C20.7582 27.3767 20.8038 26.0416 21.0383 25.2918ZM30.0047 24.0489C29.4833 23.5041 28.6144 23.0306 27.8297 22.8638C25.4412 22.356 23.1515 24.0153 22.8427 26.4779C22.7445 27.2607 22.7686 27.5249 23.0079 28.2918C23.36 29.4202 24.1673 30.3129 25.3276 30.8569C25.8668 31.1097 26.0423 31.1393 27.0019 31.1393C28.0365 31.1393 28.1006 31.126 28.8478 30.7563C31.4174 29.485 31.9961 26.1295 30.0047 24.0489Z" fill="white"/>
<path fill-rule="evenodd" clip-rule="evenodd" d="M29.6886 11.3867C29.3009 11.6036 28.8664 12.1815 27.9909 13.6448L27.7155 14.1053H26.4949H25.2743L24.5654 13.0476C24.1755 12.4659 23.7288 11.9002 23.5727 11.7906C23.1522 11.4951 22.5535 11.3291 22.1191 11.3874C21.5385 11.4654 18.7262 12.7628 18.3592 13.1219C17.6242 13.8413 17.552 14.3258 17.9499 15.8664C18.1207 16.5274 18.2603 17.1405 18.2603 17.2287C18.2603 17.317 18.0661 17.602 17.8286 17.862C17.5911 18.1219 17.2531 18.4977 17.0774 18.6971L16.7579 19.0595L15.5536 18.8178C14.2498 18.5562 13.7994 18.5692 13.1777 18.8867C12.5899 19.1869 12.3202 19.6235 11.6958 21.2859C10.7196 23.8847 10.872 24.4182 12.9271 25.5963C13.43 25.8845 13.8959 26.1742 13.9624 26.24C14.1212 26.397 14.1748 28.6372 14.0221 28.7327C12.1267 29.918 11.5215 30.5177 11.3999 31.3312C11.3246 31.8355 11.4503 32.2328 12.2082 33.8851C13.2974 36.2594 13.7946 36.5368 15.9562 35.9761C16.6164 35.8049 17.2107 35.667 17.2768 35.6696C17.3428 35.6724 17.7739 36.027 18.2345 36.4578L19.0723 37.241L18.863 38.3088C18.3643 40.8553 18.6271 41.2864 21.2803 42.274C23.9489 43.2673 24.4662 43.1178 25.6762 41.0038C25.9643 40.5004 26.2307 40.06 26.2682 40.0253C26.3056 39.9905 26.8392 39.9353 27.4538 39.9025L28.5712 39.8431L29.2252 40.8051C30.0941 42.0831 30.3669 42.3467 31.0163 42.5356C31.7082 42.737 31.9785 42.6671 33.8778 41.7961C35.4815 41.0606 35.9347 40.6854 36.1484 39.9163C36.2572 39.5245 36.2364 39.344 35.9507 38.2036C35.7751 37.5025 35.6313 36.8695 35.6313 36.7969C35.6313 36.571 37.0873 35.06 37.3077 35.0572C37.4195 35.0557 37.9909 35.1466 38.5775 35.2592C39.831 35.4997 40.3279 35.4557 40.9391 35.0499C41.4894 34.6845 41.589 34.5077 42.2761 32.6751C42.9073 30.9915 42.98 30.431 42.6505 29.7878C42.385 29.2693 42.1386 29.0625 40.9645 28.3719L39.9487 27.7744L39.896 26.6602C39.8671 26.0474 39.8568 25.5003 39.8733 25.4443C39.8896 25.3884 40.3133 25.0737 40.8147 24.7449C41.8996 24.0334 42.385 23.5257 42.5433 22.9368C42.7106 22.3149 42.6343 22.0187 41.8598 20.2851C41.1026 18.5904 40.7246 18.0975 40.0193 17.886C39.4297 17.7092 39.1435 17.735 37.9678 18.0714C37.3813 18.2392 36.8329 18.3751 36.7489 18.3734C36.665 18.3717 36.2354 18.0212 35.7943 17.5945L34.9921 16.8187L35.2104 15.64C35.4752 14.2105 35.4789 13.8688 35.2355 13.3425C34.9127 12.6445 34.5666 12.4195 32.8125 11.7665C30.9331 11.0669 30.3805 10.9998 29.6886 11.3867ZM33.4282 14.1077C33.3828 14.0685 32.7715 13.8231 32.0699 13.5623C31.3681 13.3017 30.751 13.0893 30.6985 13.0905C30.6458 13.0918 30.3573 13.532 30.0573 14.069C29.4222 15.2053 28.9302 15.7403 28.3656 15.9084C27.8196 16.0709 25.1023 16.0997 24.7231 15.947C24.1622 15.7209 23.8627 15.4207 23.1443 14.3642L22.4212 13.3006L21.9915 13.4888C21.3626 13.7641 19.7434 14.519 19.71 14.5524C19.6941 14.5683 19.8183 15.1034 19.986 15.7415C20.3372 17.0789 20.3606 17.5548 20.1027 18.1222C19.8247 18.7339 18.2447 20.4114 17.6362 20.7409C17.013 21.0783 16.6882 21.0879 15.3218 20.8089C14.7516 20.6925 14.2271 20.6195 14.1563 20.6466C14.0355 20.6931 13.0795 23.0814 13.0795 23.3368C13.0795 23.4016 13.5127 23.7098 14.042 24.0217C15.8624 25.0942 15.9686 25.2737 16.0574 27.4274C16.1125 28.7653 16.0991 28.9444 15.9131 29.3596C15.6371 29.9757 15.4476 30.1601 14.3359 30.8939C13.8126 31.2394 13.3843 31.5811 13.3843 31.6532C13.3843 31.7659 14.4607 34.2338 14.5479 34.3211C14.5652 34.3384 15.099 34.2131 15.7341 34.0427C17.0181 33.6982 17.5854 33.6599 18.1167 33.8822C18.3136 33.9645 18.9719 34.4958 19.5798 35.0626C21.1111 36.4908 21.1884 36.7272 20.7936 38.7753C20.6784 39.3731 20.6212 39.8958 20.6666 39.9368C20.7772 40.0367 23.2292 40.9537 23.3762 40.9501C23.4398 40.9485 23.7168 40.5481 23.9915 40.0602C25.0479 38.1847 25.257 38.0554 27.3914 37.9583C28.8294 37.8928 28.8616 37.8961 29.4016 38.1606C29.9607 38.4343 29.9371 38.4071 31.2599 40.3121L31.5563 40.7391L32.8065 40.1696C33.4942 39.8563 34.1078 39.5607 34.1702 39.5126C34.2515 39.4499 34.1998 39.13 33.9878 38.3839C33.6038 37.0324 33.5917 36.3224 33.9429 35.7418C34.35 35.069 35.9576 33.4506 36.4059 33.2624C36.9115 33.0502 37.5656 33.0647 38.8312 33.3162C39.3899 33.4272 39.8749 33.4862 39.9089 33.4474C39.9828 33.363 40.9137 30.8208 40.9137 30.7035C40.9137 30.6588 40.6051 30.4444 40.228 30.227C38.7617 29.3817 38.496 29.1674 38.2289 28.615C37.9959 28.1329 37.9726 27.9596 37.9536 26.563C37.9246 24.4373 37.9741 24.3427 39.7455 23.1354C40.2483 22.7927 40.6742 22.5016 40.692 22.4884C40.7096 22.4754 40.4398 21.84 40.0923 21.0767C39.6533 20.1119 39.4188 19.7047 39.3236 19.7412C38.7225 19.9722 37.1067 20.3362 36.6797 20.3369C35.9828 20.3381 35.5718 20.0853 34.4017 18.9358C33.0151 17.5736 32.9185 17.2513 33.3013 15.2659C33.4165 14.6682 33.4737 14.147 33.4282 14.1077Z" fill="white"/>
<path fill-rule="evenodd" clip-rule="evenodd" d="M6.71891 10.7493C11.2605 5.1651 17.5458 1.77548 24.6094 1.10124C28.2284 0.755878 32.4761 1.30656 35.8853 2.56321C39.0036 3.71268 42.5463 5.90107 44.7485 8.03831L45.2819 8.55594V6.92942C45.2819 5.11659 45.3309 4.95123 45.9278 4.75404C46.3438 4.61655 46.6963 4.73055 46.9828 5.09513C47.1725 5.33666 47.1899 5.54646 47.2349 8.1282C47.2853 11.0168 47.2511 11.3368 46.8567 11.6646C46.7087 11.7875 46.1499 11.8303 43.9712 11.8856C42.4851 11.9232 41.1221 11.9298 40.9423 11.9003C39.9204 11.7323 39.8034 10.402 40.7777 10.0312C40.9156 9.97866 41.6769 9.93371 42.4695 9.93127L43.9105 9.9269L43.2502 9.31621C40.1651 6.46294 36.2296 4.42099 32.0251 3.492C29.793 2.99888 26.2387 2.85854 23.9024 3.17135C16.3575 4.1815 10.0286 8.41997 6.10879 15.0876C2.89557 20.5535 2.06653 27.5329 3.89902 33.6911C4.3483 35.201 4.43525 35.4907 4.36338 35.7333C4.34588 35.7924 4.31895 35.8487 4.28555 35.9192C4.00121 36.5191 3.31145 36.6515 2.83025 36.1987C2.39059 35.7849 1.73293 33.6369 1.35889 31.3935C0.614787 26.93 1.03393 22.2945 2.55891 18.1222C3.43965 15.7126 5.15501 12.6724 6.71891 10.7493ZM49.852 19.546C49.5323 18.6266 49.5556 18.1954 49.9441 17.8479C50.3596 17.4763 50.7711 17.4744 51.1653 17.8426C51.7208 18.3613 52.5458 21.4967 52.8575 24.2748C53.4472 29.5278 52.1804 35.5357 49.5392 40.0123C45.3443 47.122 38.7162 51.5752 30.4815 52.8168C28.8541 53.0621 25.2125 53.0608 23.492 52.8143C18.1427 52.0476 12.9981 49.617 9.39708 46.1551L8.71139 45.4959V47.1443C8.71139 48.7514 8.70519 48.799 8.46616 49.0382C8.14566 49.3591 7.76533 49.4473 7.38398 49.2891C6.8338 49.061 6.80596 48.8996 6.76655 45.71L6.73049 42.7892L7.01198 42.5066L7.29347 42.2241L10.3253 42.1932L13.357 42.1623L13.6246 42.4807C14.0667 43.0067 13.9293 43.6774 13.3148 43.9919C13.181 44.0604 12.4977 44.1055 11.5933 44.1055H10.0938L10.4438 44.4713C10.6363 44.6725 11.251 45.207 11.8097 45.6589C15.3996 48.563 19.5481 50.3263 24.203 50.9266C25.4134 51.0827 28.5182 51.0826 29.7902 50.9265C33.4533 50.4767 37.3394 49.0578 40.2534 47.1058C47.0317 42.5655 51.0722 35.0562 51.0722 26.999C51.0722 24.6693 50.5726 21.6173 49.852 19.546ZM21.0383 25.2918C21.7036 23.1635 23.2536 21.6426 25.4079 21.0042C26.3448 20.7266 28.0107 20.7959 29.026 21.1546C31.8939 22.168 33.6437 25.1914 33.0526 28.1119C32.8582 29.0722 32.5959 29.7067 32.0743 30.4784C30.5321 32.7603 27.6252 33.7122 24.9476 32.8121C22.9636 32.1452 21.3898 30.3432 20.938 28.2215C20.7582 27.3767 20.8038 26.0416 21.0383 25.2918ZM30.0047 24.0489C29.4833 23.5041 28.6144 23.0306 27.8297 22.8638C25.4412 22.356 23.1515 24.0153 22.8427 26.4779C22.7445 27.2607 22.7686 27.5249 23.0079 28.2918C23.36 29.4202 24.1673 30.3129 25.3276 30.8569C25.8668 31.1097 26.0423 31.1393 27.0019 31.1393C28.0365 31.1393 28.1006 31.126 28.8478 30.7563C31.4174 29.485 31.9961 26.1295 30.0047 24.0489Z" stroke="white" mask="url(#path-1-outside-1_1213_6549)"/>
<path fill-rule="evenodd" clip-rule="evenodd" d="M29.6886 11.3867C29.3009 11.6036 28.8664 12.1815 27.9909 13.6448L27.7155 14.1053H26.4949H25.2743L24.5654 13.0476C24.1755 12.4659 23.7288 11.9002 23.5727 11.7906C23.1522 11.4951 22.5535 11.3291 22.1191 11.3874C21.5385 11.4654 18.7262 12.7628 18.3592 13.1219C17.6242 13.8413 17.552 14.3258 17.9499 15.8664C18.1207 16.5274 18.2603 17.1405 18.2603 17.2287C18.2603 17.317 18.0661 17.602 17.8286 17.862C17.5911 18.1219 17.2531 18.4977 17.0774 18.6971L16.7579 19.0595L15.5536 18.8178C14.2498 18.5562 13.7994 18.5692 13.1777 18.8867C12.5899 19.1869 12.3202 19.6235 11.6958 21.2859C10.7196 23.8847 10.872 24.4182 12.9271 25.5963C13.43 25.8845 13.8959 26.1742 13.9624 26.24C14.1212 26.397 14.1748 28.6372 14.0221 28.7327C12.1267 29.918 11.5215 30.5177 11.3999 31.3312C11.3246 31.8355 11.4503 32.2328 12.2082 33.8851C13.2974 36.2594 13.7946 36.5368 15.9562 35.9761C16.6164 35.8049 17.2107 35.667 17.2768 35.6696C17.3428 35.6724 17.7739 36.027 18.2345 36.4578L19.0723 37.241L18.863 38.3088C18.3643 40.8553 18.6271 41.2864 21.2803 42.274C23.9489 43.2673 24.4662 43.1178 25.6762 41.0038C25.9643 40.5004 26.2307 40.06 26.2682 40.0253C26.3056 39.9905 26.8392 39.9353 27.4538 39.9025L28.5712 39.8431L29.2252 40.8051C30.0941 42.0831 30.3669 42.3467 31.0163 42.5356C31.7082 42.737 31.9785 42.6671 33.8778 41.7961C35.4815 41.0606 35.9347 40.6854 36.1484 39.9163C36.2572 39.5245 36.2364 39.344 35.9507 38.2036C35.7751 37.5025 35.6313 36.8695 35.6313 36.7969C35.6313 36.571 37.0873 35.06 37.3077 35.0572C37.4195 35.0557 37.9909 35.1466 38.5775 35.2592C39.831 35.4997 40.3279 35.4557 40.9391 35.0499C41.4894 34.6845 41.589 34.5077 42.2761 32.6751C42.9073 30.9915 42.98 30.431 42.6505 29.7878C42.385 29.2693 42.1386 29.0625 40.9645 28.3719L39.9487 27.7744L39.896 26.6602C39.8671 26.0474 39.8568 25.5003 39.8733 25.4443C39.8896 25.3884 40.3133 25.0737 40.8147 24.7449C41.8996 24.0334 42.385 23.5257 42.5433 22.9368C42.7106 22.3149 42.6343 22.0187 41.8598 20.2851C41.1026 18.5904 40.7246 18.0975 40.0193 17.886C39.4297 17.7092 39.1435 17.735 37.9678 18.0714C37.3813 18.2392 36.8329 18.3751 36.7489 18.3734C36.665 18.3717 36.2354 18.0212 35.7943 17.5945L34.9921 16.8187L35.2104 15.64C35.4752 14.2105 35.4789 13.8688 35.2355 13.3425C34.9127 12.6445 34.5666 12.4195 32.8125 11.7665C30.9331 11.0669 30.3805 10.9998 29.6886 11.3867ZM33.4282 14.1077C33.3828 14.0685 32.7715 13.8231 32.0699 13.5623C31.3681 13.3017 30.751 13.0893 30.6985 13.0905C30.6458 13.0918 30.3573 13.532 30.0573 14.069C29.4222 15.2053 28.9302 15.7403 28.3656 15.9084C27.8196 16.0709 25.1023 16.0997 24.7231 15.947C24.1622 15.7209 23.8627 15.4207 23.1443 14.3642L22.4212 13.3006L21.9915 13.4888C21.3626 13.7641 19.7434 14.519 19.71 14.5524C19.6941 14.5683 19.8183 15.1034 19.986 15.7415C20.3372 17.0789 20.3606 17.5548 20.1027 18.1222C19.8247 18.7339 18.2447 20.4114 17.6362 20.7409C17.013 21.0783 16.6882 21.0879 15.3218 20.8089C14.7516 20.6925 14.2271 20.6195 14.1563 20.6466C14.0355 20.6931 13.0795 23.0814 13.0795 23.3368C13.0795 23.4016 13.5127 23.7098 14.042 24.0217C15.8624 25.0942 15.9686 25.2737 16.0574 27.4274C16.1125 28.7653 16.0991 28.9444 15.9131 29.3596C15.6371 29.9757 15.4476 30.1601 14.3359 30.8939C13.8126 31.2394 13.3843 31.5811 13.3843 31.6532C13.3843 31.7659 14.4607 34.2338 14.5479 34.3211C14.5652 34.3384 15.099 34.2131 15.7341 34.0427C17.0181 33.6982 17.5854 33.6599 18.1167 33.8822C18.3136 33.9645 18.9719 34.4958 19.5798 35.0626C21.1111 36.4908 21.1884 36.7272 20.7936 38.7753C20.6784 39.3731 20.6212 39.8958 20.6666 39.9368C20.7772 40.0367 23.2292 40.9537 23.3762 40.9501C23.4398 40.9485 23.7168 40.5481 23.9915 40.0602C25.0479 38.1847 25.257 38.0554 27.3914 37.9583C28.8294 37.8928 28.8616 37.8961 29.4016 38.1606C29.9607 38.4343 29.9371 38.4071 31.2599 40.3121L31.5563 40.7391L32.8065 40.1696C33.4942 39.8563 34.1078 39.5607 34.1702 39.5126C34.2515 39.4499 34.1998 39.13 33.9878 38.3839C33.6038 37.0324 33.5917 36.3224 33.9429 35.7418C34.35 35.069 35.9576 33.4506 36.4059 33.2624C36.9115 33.0502 37.5656 33.0647 38.8312 33.3162C39.3899 33.4272 39.8749 33.4862 39.9089 33.4474C39.9828 33.363 40.9137 30.8208 40.9137 30.7035C40.9137 30.6588 40.6051 30.4444 40.228 30.227C38.7617 29.3817 38.496 29.1674 38.2289 28.615C37.9959 28.1329 37.9726 27.9596 37.9536 26.563C37.9246 24.4373 37.9741 24.3427 39.7455 23.1354C40.2483 22.7927 40.6742 22.5016 40.692 22.4884C40.7096 22.4754 40.4398 21.84 40.0923 21.0767C39.6533 20.1119 39.4188 19.7047 39.3236 19.7412C38.7225 19.9722 37.1067 20.3362 36.6797 20.3369C35.9828 20.3381 35.5718 20.0853 34.4017 18.9358C33.0151 17.5736 32.9185 17.2513 33.3013 15.2659C33.4165 14.6682 33.4737 14.147 33.4282 14.1077Z" stroke="white" mask="url(#path-1-outside-1_1213_6549)"/>
</svg>
