<svg width="72" height="72" viewBox="0 0 72 72" fill="none" xmlns="http://www.w3.org/2000/svg">
<circle cx="36" cy="36" r="34" stroke="white" stroke-width="4"/>
<path fill-rule="evenodd" clip-rule="evenodd" d="M46.4455 14.2609C41.5003 15.2945 38.1623 20.0619 38.8942 25.0451C39.2473 27.4493 40.1484 28.9733 43.1552 32.2518C45.2569 34.5434 46.2237 35.8196 47.1535 37.5289C48.2697 39.5809 48.5993 39.6021 49.599 37.686C50.5518 35.8592 51.3813 34.7615 53.7176 32.235C57.113 28.5632 58 26.7583 58 23.5203C58 18.8663 54.9641 15.1939 50.3378 14.2517C48.6787 13.9139 48.0989 13.9153 46.4455 14.2609ZM50.6651 18.9861C52.4145 19.7784 53.4707 21.4471 53.4919 23.453C53.5297 27.0342 49.6569 29.3911 46.2432 27.864C43.6677 26.7118 42.5583 23.6183 43.8491 21.1875C44.5788 19.8133 45.8837 18.9017 47.7128 18.4884C48.388 18.3358 49.7276 18.5617 50.6651 18.9861ZM33.5808 19.077C30.0865 19.4901 27.3548 20.3146 24.9526 21.6815C19.9065 24.5523 16.4483 29.2188 15.2913 34.7177C14.8052 37.0288 14.9451 41.3497 15.5794 43.613C17.1703 49.2892 21.7047 54.2969 27.2389 56.4893C31.6697 58.2447 36.4625 58.4775 40.845 57.15C47.5976 55.1047 52.6876 49.9077 54.4949 43.2137C54.9051 41.6937 54.9768 40.9552 54.9598 38.4219C54.9487 36.7748 54.854 35.1718 54.749 34.8597L54.5585 34.2921L53.5441 35.5327C52.9861 36.215 52.0536 37.6277 51.4717 38.6721C50.2619 40.8442 49.5381 41.409 48.1725 41.2469C46.9611 41.1029 46.4311 40.6415 45.5533 38.9664C45.1085 38.1179 44.3279 36.8846 43.8184 36.2257C42.7903 34.8964 40.5772 32.4706 40.2949 32.3636C40.1954 32.3259 39.7978 32.5263 39.4117 32.8094C38.5245 33.4595 37.9453 34.8337 38.1396 35.8282C38.268 36.4861 38.4112 36.6067 39.855 37.2743C41.5585 38.0622 41.9976 38.6162 41.9976 39.9781C41.9976 41.0418 43.2439 41.9149 44.7648 41.9167C46.088 41.9181 47.2805 43.0855 46.9089 44.0157C46.842 44.1828 46.4679 44.5008 46.0772 44.7223C45.3234 45.1495 44.7773 46.0945 44.9845 46.6132C45.053 46.7849 45.4265 47.0526 45.8143 47.2084C46.6639 47.5494 46.8318 47.896 46.5388 48.7036C46.3181 49.3119 46.3711 50.3028 46.6583 50.9351C47.0174 51.7262 42.5633 54.2937 39.3998 55.1193C37.0718 55.7268 33.0392 55.7259 30.6825 55.1169C27.4662 54.2857 24.0511 52.3285 22.0512 50.17C17.6081 45.3743 16.2369 39.076 18.3251 33.054C19.2148 30.4885 19.258 30.4539 19.5436 32.0805C19.7965 33.5214 20.6675 35.5479 21.4387 36.4899C22.2123 37.4347 23.7206 38.2928 25.7469 38.9414C28.0352 39.6738 28.697 40.1797 28.697 41.1966C28.697 41.7925 28.5324 42.0295 27.5539 42.8409C25.8481 44.2557 25.9558 44.9205 28.0841 46.1147C29.5588 46.942 29.9108 47.4184 29.5397 48.0845C29.2286 48.6431 29.268 49.5332 29.6417 50.3925C29.8184 50.7986 29.9422 51.5676 29.9169 52.1009C29.8633 53.2288 30.1715 53.6956 30.9693 53.6956C31.7091 53.6956 32.364 53.0802 32.6707 52.0963C33.0405 50.9108 34.1479 49.8051 35.8022 48.9699C38.1616 47.7788 38.5062 46.7573 37.3125 44.4941C36.6846 43.3037 35.4296 42.3765 33.2691 41.5064C30.8851 40.5463 30.4994 40.0779 30.1511 37.719C29.8643 35.7761 29.6644 35.4555 28.8343 35.606C26.765 35.9814 26.6123 35.9826 26.2025 35.6262C24.8379 34.4398 26.1314 31.9332 28.1082 31.9332C29.3015 31.9332 30.2296 32.3848 31.5809 33.623C33.2485 35.1512 33.9669 35.0723 34.8429 33.2649C35.5169 31.8743 35.4926 31.4166 34.7238 31.0347C34.2573 30.8029 34.1004 30.5849 34.1004 30.1684C34.1004 29.5565 34.654 28.9783 36.1906 27.9864C38.2913 26.6299 38.1712 26.1719 35.3388 24.7414C33.1556 23.6385 32.4854 22.9744 32.8773 22.3014C33.1277 21.8717 34.3244 21.5537 35.6962 21.5523L36.7725 21.5511L37.1113 20.4316C37.2977 19.8157 37.4212 19.2876 37.3858 19.2579C37.2586 19.1508 34.1903 19.0049 33.5808 19.077Z" fill="white"/>
</svg>
